<?xml version="1.0" encoding="UTF-8"?>
<svg enable-background="new 0 0 302.4 517.68" viewBox="0 0 302.4 517.68" xmlns="http://www.w3.org/2000/svg">
 <path d="m163.44,25.68c.242,3.604-.034,8.765-2.4,10.56 .547-2.127 1.731-5.032 2.16-8.16 .112-.815-.139-1.677.24-2.4z" fill-rule="evenodd"/>
 <path d="m99.6,61.2c-.257,1.644-1.277,5.407-.48,8.16-1.045-.745-.976-3.577-.72-5.28 .196-1.304.818-2.356 1.2-2.88z" fill-rule="evenodd"/>
 <path d="m131.76,152.16c.516,1.725.933,3.547.96,5.76-.592-1.649-.965-3.515-.96-5.76z" fill-rule="evenodd"/>
 <path d="m133.44,162.48c1.025,1.935 1.028,4.892 1.44,7.44-.791-2.169-1.03-4.89-1.44-7.44z" fill-rule="evenodd"/>
 <path d="m244.32,207.6c-.65.729-1.087.177-1.92,0-6.408-.248-10.798,1.522-16.08,2.4 1.316-.77 3.089-1.067 4.8-1.44 3.762-.819 8.967-2.24 13.2-.96z" fill-rule="evenodd"/>
 <path d="m163.92,323.04c.603,1.249-.337,3.018 0,4.8-.753-.608.011-3.384 0-4.8z" fill-rule="evenodd"/>
 <path d="m163.44,331.44c.26.059.162.477.479.479-.264,1.373-.229,3.122-.24,5.28-.557-1.441-.081-3.917-.239-5.759z" fill-rule="evenodd"/>
 <path d="m163.44,340.32c.558,2.001.081,5.038.239,7.439-.902-1.749-.424-5.289-.239-7.439z" fill-rule="evenodd"/>
 <path d="m163.2,348c.214.106.429.211.479.48-.081,1.696-.18,2.206 0,3.84 .118,1.13-.433.58-.239-.24-.315-1.125-.247-2.634-.24-4.08z" fill-rule="evenodd"/>
 <path d="m36.72,465.6c.03-.529 1.018-.102 1.44-.239 .984-.024 1.967-.048 2.64.239h3.12c1.896.083-2.191.489-2.64.48-1.62-.03-3.37-.76-4.56-.48z" fill-rule="evenodd"/>
 <path d="m219.6,228.72c-1.613,2.546-1.424,5.612-1.92,8.4-1.504,8.451-3.439,17.228-5.279,25.68-4.808,22.079-12.026,42.985-18.721,63.84-.416,1.297-1.027,2.501-1.439,3.841-1.145,3.712-2.499,7.663-3.84,11.52-.908,2.609-1.648,5.23-2.4,7.92-.726,2.592-1.878,4.912-2.64,7.44-.769,2.548-1.227,5.148-1.92,7.68-.684,2.491-1.6,5.025-1.921,7.68 1.046.13 1.498-1.259 1.921-1.92 1.593-2.494 2.855-5.287 4.56-8.16 1.528-2.575 2.937-5.697 4.32-8.64 2.091-4.446 4.475-10.585 5.76-16.08 .636-2.719.824-5.329 2.399-7.2-.107-4.988 1.546-8.214 2.4-12.239-.365-1.246 1.097-.664 1.2-1.44 .772-3.867 2.159-7.12 3.36-10.56 3.196-3.363 5.364-7.756 7.68-12 3.253-.801 5.623-3.761 8.88-4.561 .886-.218 2.648-.534 3.84-.24 .966.238 1.987,1.609 3.12,2.641 .929.845 2.295,1.778 2.88,2.64 1.153,1.698 1.313,4.132 2.4,5.28-1.045,3.516-.987,8.133-2.16,11.52-.312,1.352 1.031,1.049.72,2.4-1.224,2.533-1.22,5.063-2.16,7.439-.955,2.417-3.408,4.427-3.12,7.681-2.816,3.071-4.944,6.676-7.68,10.08-.408.508-1.067.896-1.439,1.439-.429.624-.488,1.427-.96,1.92-.849.887-2.69,1.916-3.841,2.88-2.286,1.919-4.483,4.028-6.72,6.24-1.161,1.149-2.455,1.862-3.6,2.88-2.228,1.98-4.538,4.245-6.721,6.48-1,1.024-1.849,2.474-2.88,3.6-1.071,1.171-2.452,1.974-3.359,3.12-1.962,2.479-3.656,5.713-5.521,8.64-3.766,5.915-6.155,12.201-8.64,19.681-1.181,3.555-2.469,7.403-2.88,11.04-.743,6.571-1.023,13.769-.48,21.12 .16,2.165.693,4.292.96,6.72 .097.876-.145,1.998 0,2.88 .971,5.928 4.329,10.098 8.16,13.68 .047-6.973.162-14.171 2.64-19.439 .837-1.779 1.947-3.421 2.881-5.04 .375-.651.357-1.387.72-1.92 .866-1.277 2.283-2.522 3.359-3.84 1.089-1.333 2.078-2.809 3.12-3.841 .981-.97 2.292-1.664 3.36-2.64 2.023-1.848 3.73-4.153 5.76-6.24 .994-1.022 2.187-1.873 3.12-2.88 .941-1.015 1.643-2.321 2.64-3.359 .983-1.023 2.063-1.905 3.12-2.881 2.213-2.041 4.169-4.59 6.24-5.76 .632-.356 1.517-.415 2.16-.72 2.458-1.164 4.445-3.052 6.72-4.32 2.391-1.333 4.774-2.254 6.96-3.84 4.66-.219 9.567-3.032 15.36-3.84 1.038-.145 2.456-.322 3.6-.24 .767.055 1.366.468 2.16.48 2.274.035 4.55-.667 6.96-.721 2.715-.06 6.968.243 9.36,1.2 .87.348 2.506.429 4.08.72 .855.159 1.64.583 2.399.721 2.167.392 4.927.426 6.48,1.92 .429.412.429,1.436 1.2,2.399 1.007,1.259 3.159,2.117 4.08,3.36 1.322,1.786 2.434,4.256 2.159,6.96-.348,3.431-2.75,4.775-4.56,7.68-.524,1.659-.698,2.839-1.68,3.841-1.324,1.351-4.614,2.455-6.96,2.88-2.053.371-4.484-.236-5.521,1.439-2.715.222-5.412,1.513-8.399,1.92-3.01.411-6.271.196-8.4,1.92-1.806.042-3.256.793-5.04.96-3.321.312-6.822-.488-10.32,0-1.302.183-2.565.997-3.84,1.2-6.814,1.086-13.819.377-20.16,1.2-3.94.512-8.476,2.017-12.239,3.36-2.145.765-4.579,1.985-6.48,3.12-1.42.847-2.7,1.987-4.08,3.119-2.444,2.006-4.975,6.484-5.04,11.28-.046,3.354 1.282,7.116 2.64,10.08 3.75,8.185 12.782,13.419 21.36,16.561 3.083,1.129 6.198,2.14 9.36,3.359 4.342,1.676 8.639,3.701 13.439,5.521 2.912,1.103 6.21,1.931 9.36,3.12 1.436.542 2.659,1.577 4.08,2.159 3.762,1.543 7.767,2.332 11.28,4.08 1.569.781 3.25,1.949 4.8,2.88 3.021,1.815 6.085,3.697 7.439,6.96-2.115-1.193-3.646-3.601-5.76-5.04-.799-.544-2.242-1.097-3.36-1.68-1.509-.787-3.625-1.987-5.52-2.88-1.599-.753-3.179-1.297-4.8-1.92-4.708-1.811-8.896-3.818-13.92-5.521-1.569-.531-2.979-1.272-4.561-1.92-1.634-.668-3.431-.819-5.04-1.439-1.706-.658-3.169-1.757-4.8-2.4-1.703-.671-3.393-1.312-5.04-1.92-3.809-1.406-7.519-1.739-11.76-2.399-3.695-.576-7.479-1.509-10.8-1.921-7.604-.941-17.826-.823-27.12-.479 1.696,1.283 3.996.736 6,.96 3.453.385 6.966,1.14 10.32,1.68 14.801,2.384 28.305,8.588 41.76,13.44 3.335,1.203 6.439,2.935 9.84,4.08 6.703,2.258 13.299,4.646 19.92,7.68 1.567.718 3.108,1.378 4.56,2.4 1.189.837 2.832,1.773 3.36,3.359-1.475.635-2.317-1.061-3.12-1.68-2.822-2.177-6.626-3.836-10.319-5.28-4.893-1.912-9.84-3.812-14.881-5.76-4.829-1.866-9.642-4.325-14.64-6-1.351-.452-2.776-.691-4.08-1.2-3.028-1.182-6.133-1.955-9.6-3.359-.474-.192-.927-.784-1.44-.96-2.537-.872-5.387-1.409-8.16-2.16-1.39-.377-2.673-.819-4.08-1.2-1.436-.39-2.8-.433-4.319-.72-3.879-.734-7.756-2.026-11.761-2.641-2.039-.312-4.151-.662-6.239-.96-2.013-.286-4.087-.81-6-.96-2.256-.177-4.628.271-6.96.48-6.297.563-13.851.107-20.88-.48-2.233-.187-4.511-.866-6.72-.96-3.95-.167-7.445.788-10.8,1.44-1.209.235-2.473.208-3.6.479-1.194.288-2.35,1.049-3.6,1.44-2.371.743-5.154,1.104-7.68,1.92-1.182.382-2.258,1.052-3.36,1.439-1.296.457-2.658.534-3.84.961-2.229.804-4.432,1.795-6.72,2.88-3.602,1.707-7.406,3.173-10.8,5.76-1.53,1.166-3.251,2.231-4.56,3.36-1.199,1.033-2.407,2.727-3.84,4.079-1.414,1.335-3.535,3.069-4.56,3.36-.731.207-1.332.098-2.4,0-4.859,3.541-13.192,3.607-19.44,5.76-1.202.322-.37-1.391-1.68-.96-5.004.098-10.897,1.216-16.08.721-.998-.096-2.116-.565-3.12-.721-1.536-.237-2.93-.053-4.08-.479-.916-.34-1.42-.879-2.16-1.44-3.974-1.306-7.787-2.772-10.8-5.04-1.8-3.097-2.293-8.662-1.92-12.72 .367-3.995 2.9-6.783 4.8-9.6 1.652-2.45 3.772-3.676 3.84-6.721 2.397-1.232 4.732-2.765 7.2-4.08 1.924-1.024 3.993-1.346 5.04-3.359 6.475-1.765 12.466-4.015 20.4-4.32 .974-.443 1.082-1.309 1.92-1.68 1.273-.564 3.878-.423 6.24-.721 2.039-.257 4.043-.846 5.76-.96 2.763-.183 5.221-.008 7.92,0 6.656.02 13.257.702 19.44,1.44 6.135.732 11.562,2.797 17.52,4.32 3.56.909 6.88,1.333 11.04,1.68 2.776.231 4.948.537 7.92.479 5.428-.104 10.947.321 16.08.721 13.636,1.061 26.41,4.116 39.12,6-3.926-4.091-10.052-6.193-13.439-10.8-3.533-4.805-6.061-13.573-7.921-19.921-4.407-15.044-7.27-29.48-10.799-44.88-2.631-11.477-5.018-22.367-8.4-33.12-1.122-3.567-2.169-7.188-3.6-10.319-2.89-6.329-5.729-12.323-9.6-18-3.712-5.444-7.71-10.462-12.24-15.601-1.084-1.229-1.917-2.628-3.12-3.84-1.132-1.141-2.434-2.194-3.6-3.359-2.275-2.275-4.467-4.912-7.2-6.48-1.955-1.122-4.054-1.461-6.24-2.16-1.868-.597-3.782-1.832-5.52-2.64-3.794-1.763-7.019-3.56-10.56-5.76-.559-.322-.371-1.39-.72-1.92-6.478-3.089-12.133-7.03-18.48-10.801-3.337-1.982-6.443-3.889-10.56-5.52-.765-.303-1.61-.378-2.4-.72-5.373-2.327-12.083-5.379-18.48-6.96-4.753-1.175-9.089-1.988-7.68-7.92 .469-1.974.851-3.388 2.16-4.56 1.816-1.627 5.056-2.422 7.44-2.88 .899-.141.689-1.391 1.68-1.44 4.545.095 8.392.888 12.24,1.68 1.154.194.867-1.053 2.16-.72 4.033.884 7.658,3.332 11.04,4.08 3.521,2.108 7.978,4.056 12,6.24 1.716.932 2.965,1.561 5.04,2.4 2.588,1.047 5.084,3.026 7.44,4.8 1.119.843 2.467,1.54 3.6,2.399 1.155.877 1.999,2.185 3.12,2.881 .75.466 1.733.482 2.4.96 1.617,1.156 3.325,3.562 5.04,5.52 4.666,5.327 9.236,11.924 13.92,17.04 1.763,1.927 3.557,3.424 5.04,5.28 2.987,3.737 5.701,7.951 8.16,12.479 1.162,2.14 2.225,4.623 3.6,6.721 .638.973 1.681,1.705 2.4,2.64 1.349,1.753 2.614,3.673 3.84,5.76 2.826,4.813 5.471,10.928 8.64,15.84-.057-5.458-.663-11.343-1.2-17.279-.545-6.025-.339-12.186-1.2-18-.193-1.302-.814-2.712-.96-4.08-.426-4.001-.348-7.59-.96-11.04-1.135-6.395-4.513-10.987-7.44-16.08-4.186-7.283-8.087-15.428-11.76-23.52-1.827-4.026-3.594-7.924-5.52-12.24-1.39-3.114-2.719-6.566-3.84-10.56-1.729-6.156-4.121-13.089-5.52-19.68-2.023-9.529-3.102-19.311-4.08-29.76-.365-3.903-1.329-7.847-1.68-12-.472-5.587.006-11.429-.24-17.28-.101-2.384-.316-4.819-.48-7.2-.255-3.708-.419-7.25-.72-11.04-.563-7.107-1.145-14.32-3.36-20.4-.63-1.73-1.913-3.146-2.16-5.04 2.959.641 4.992,2.208 6.72,4.08 2.032-.032 2.514,1.486 3.84,2.16 .063-9.673-.318-18.526-.48-27.84-.038-2.164.517-5.391-.48-7.2-.693-1.259-3.065-1.656-4.08-2.88-2.103-2.537-2.229-7.711-.96-10.56 1.201-2.696 3.975-3.792 6-5.52 5.504-.641 8.885,3.369 9.36,8.16 .271,2.732-.504,6.107-1.92,7.92-1.08,1.383-2.948,1.771-3.6,3.12-1.375,2.845-.631,16.315-.48,22.08 .132,5.042.705,8.768.72,12.24 .011,2.582.184,3.643.48,6.24 .172,1.508.07,3.478.48,4.56 .557,1.469 2.04,2.063 2.64,2.88 1.393,1.896 2.523,5.28 3.6,8.16 .332.888.971,1.873 1.2,2.64 1.197,4.015.502,6.994.48,11.04-.007,1.288.517,2.678.48,4.08-.114,4.319-1.839,8.747-2.88,12.72-.333,1.274-.886,2.826-.96,4.08-.065,1.113.375,2.235.48,3.36 .261,2.804.261,5.709.72,8.64 .216,1.378.483,2.682.72,4.08 .866,5.119 1.511,12.024 2.64,17.28 .486,2.265 1.211,4.464 1.68,6.72 .493,2.369.934,4.729 1.44,6.96 .475,2.094 1.578,3.34 1.44,6.24 1.826,3.86 1.922,8.15 3.36,12.48 .412,1.24 1.237,2.321 1.68,3.6 .42,1.212.52,2.576.96,3.84 .93,2.669 2.176,6.228 3.12,9.36 1.234,4.095 2.57,8.288 4.08,12.24 2.054,5.378 2.962,11.05 5.52,16.08 .722-4.797.706-9.625.72-14.4 .008-2.912-.211-5.872-.24-8.88-.078-8.095-.606-16.42-.96-24.48-.084-1.907.208-3.911 0-5.76-.21-1.865-1.305-3.709-1.68-5.52-.534-2.579-.264-5.29-.48-7.92-.292-3.562-.915-7.167-1.44-10.8-.645-4.46-1.71-9.02-2.4-13.44-.532-3.409-1.653-6.698-2.16-9.84-.187-1.156-.03-2.41-.24-3.6-.302-1.714-.986-3.388-1.44-5.28-.414-1.724-.987-3.595-1.44-5.28-.997-3.707-1.653-7.018-3.12-10.08-3.021-6.308-6.111-12.268-8.4-18.24 .569-3.996-2.031-8.049-2.16-12.72-.023-.821.421-1.508.48-2.4 .226-3.416-.629-7.252-.24-10.56 .33-2.806 1.313-6.071 2.16-8.64 2.535-.641 5.064,1.401 7.2,1.2 1.43,2.321 3.711,3.769 5.04,6 .529.888.618,1.995 1.2,2.88 .63.959 1.749,1.612 2.4,2.64 1.868,2.951 2.506,8.077 3.36,12.24 .153.747.098,1.471.24,2.16 .158.766.626,1.427.72,2.16 .979,7.657-.48,16.017-.48,24.72 0,4.028.337,8.212.72,12.24 .639,6.714.798,13.239 1.44,19.68 .236,2.375.406,4.778 1.44,6.72 .987-5.438.24-10.864.48-16.32 .334-7.606.987-15.233 1.68-22.8 .691-7.543 1.159-15.164 1.92-22.56 1.127-10.963 2.684-21.891 4.08-32.64 .554-4.262.638-8.516 1.2-12.72 2.08-15.549 5.876-30.316 7.2-45.84-.375-1.313-1.791-1.435-1.44-2.88-.048-.391-.635-.112-.96-.24-.933-.366-.333-1.5-1.92-1.44 .061-1.249-.792-2.174-1.2-3.12-.479-1.113-.66-2.26-1.2-3.12-.41-.652-1.085-1.605-1.68-2.16-2.479-2.312-6.385-3.064-6.96-7.44-1.151-1.569-2.883-2.557-4.08-4.08-2.677.117-4.656-.463-6.24-1.44-.118-2.118 2.243-1.757 3.36-2.64-.355-1.564-1.734-2.106-1.92-3.84 1.146-.715 2.313.327 3.12.72 .63-.7-.213-1.382 0-2.4 1.47.051 2.215.825 3.36,1.2 .899.019.061-1.699.96-1.68 1.835.084 2.672,1.168 3.84,1.92 .759-.281.349-1.731 1.44-1.68 1.16.944 3.74-.826 4.8.96 3.264-2.066 5.966,1.375 7.68,3.12 1.232-.848 2.073-2.087 3.6-2.64 1.651.669 2.213,2.428 3.12,3.84 1.816-.504 2.466-2.174 4.32-2.64 1.235.125.833,1.888 1.92,2.16 1.028-.251 1.744-.816 3.12-.72 .634,1.126.468,3.052.479,4.8 1.541.295 3.617-.83 5.04-1.44 2.903.478 4.253-1.794 6.96-.72 .98,1.073-.365,2.232-.239,3.84 2.073-.478 3.283-.778 5.76-.48 .708.623-.418,1.587.24,2.16 .76.36 1.902.338 2.64.72 1.124-.067-.308,1.051.48,1.44 .472.328 1.37.229 1.92.48-.771,1.942 1.404,1.598 1.92,2.88-.053,1.068-1.169,1.071-1.681,1.68-.427.928 1.421,1.387 1.2,2.88-4.808,1.112-11.885-.045-15.6,2.16h-2.16c-1.372.984-3.205,1.057-4.56,1.92-.819.522-1.066,1.331-1.681,1.92-.286.275-.897.198-1.2.48-.311.29-.271,1.029-.479,1.2-.319.261-1.028.422-1.44.72-.436.315-.848.758-1.199.96-1.211.694-2.721.727-4.08,1.44-.884.463-1.58,1.6-2.641,1.92-3.512,6.436-4.031,13.844-5.52,22.08-1.285,7.108-2.921,15.266-4.08,23.28-.787,5.44-.965,11.073-1.68,16.56-.415,3.177-1.431,6.361-1.68,9.6-.356,4.618-.165,8.625-.72,13.2-.275,2.263-.925,4.457-1.2,6.72-.911,7.504-.946,15.615-1.68,23.52-.354,3.811-.386,7.655-.72,11.52-.688,7.954-1.095,15.622-.96,23.76 1.012-.978 1.262-2.562 1.68-3.84 2.539-7.77 4.135-17.42 6.96-25.2 1.42-3.912 2.784-7.751 4.08-12 .779-2.554 1.913-4.315 2.88-6.72 1.581-3.932 3.256-9.508 5.52-12.72 .525-.745 1.539-1.302 2.16-2.16 .563-.778.866-1.775 1.44-2.64 1.311-1.974 3.147-4.891 4.8-6.72 1.14-1.262 3.713-2.439 5.52-3.36 1.469-.748 3.054-1.331 4.561-1.92-2.912,2.545-6.854,3.275-9.6,6-.786.779-1.378,2.013-2.16,3.12-1.458,2.062-2.724,3.949-4.32,6.24-.721,1.034-1.816,1.914-2.4,2.88-1.979,3.276-3.368,7.476-4.8,11.52-1.021,2.885-2.592,5.604-3.6,8.64-.384,1.154-.354,2.245-.72,3.36-.304.926-1.112,1.707-1.44,2.64-.526,1.496-.875,3.027-1.44,4.56-1.516,4.111-2.694,9.395-3.6,14.16 2.224-3.376 2.682-8.519 5.28-11.52 .956-5.61 3.636-9.654 6.239-13.92 4.623-7.574 9.281-14.98 14.881-21.6-1.549,3.853-5.017,6.619-7.44,10.32-.614.939-.983,2.011-1.68,2.88-.29.361-.233.586-.48.96-3.218,4.873-6.774,9.691-8.88,15.36 1.129.544 1.521-1.096 1.92-1.68 1.518-2.226 3.504-4.545 5.521-6.48 2.186-.395 5.068-.9 7.439-1.92 1.644-.707 2.854-2.273 4.561-3.6 .806-.627 1.722-1.039 2.399-1.68 .684-.646 1.168-1.548 1.92-2.16 .777-.631 1.789-1.006 2.641-1.68 .955-.756 1.804-1.887 2.88-2.88 1.119-1.034 2.408-1.798 2.88-2.64 .385-.687.259-1.719.72-2.64 .604-1.206 1.741-2.136 2.4-3.36 .729-1.355 1.493-2.894 1.68-4.08 .118-.748-.344-1.564-.24-2.4 .113-.904 1.043-1.786 1.2-2.88 .241-1.677-.178-2.991 0-4.8-2.542-2.396-8.071-1.247-11.52-.72 2.335-2.037 9.478-1.42 12.239-.24-.14,2.128.19,4.182 0,6-.079.761-.607,1.392-.72,2.16-.124.857.177,1.633 0,2.4-.395,1.718-1.482,3.559-2.399,5.28-1.763,3.308-2.591,5.61-5.04,8.16-.446.464-1.187.704-1.681,1.2-1.204,1.212-2.286,2.375-3.84,3.6-2.279,1.796-5.011,3.832-7.2,6 5.003,1.196 11.244-1.954 16.08.48-.917,1.426-2.667.966-4.08,1.44-2.475.831-5.916,2.862-7.92,4.8-.71.687-1.202,1.82-1.92,2.64s-1.66,1.367-2.399,2.16c-1.466,1.571-2.698,3.543-3.841,5.28-1.794,2.728-3.134,5.686-4.56,9.12-.423,1.019-1.23,2.082-1.44,2.88-.419,1.596-.35,3.366-.72,5.04-.348,1.574-.552,3.286-.96,4.8-.26.964-.937,1.708-1.2,2.64-.217.766-.053,1.674-.239,2.4-.484,1.88-1.793,3.36-2.4,5.28-.459,1.451-.644,3.435-.96,5.04-2.241,11.36-3.051,24.394-6.24,35.28-1.278,4.362-2.288,8.275-4.8,11.52-1.779,8.344-2.88,19.231-1.68,29.041 6.192-13.647 17.023-24.469 27.36-35.521 4.702-5.027 9.97-10.51 16.08-15.36 5.861-4.653 12.194-9.71 20.16-11.04 2.233-.373 4.189-.016 6-1.44 1.203-4.43 1.19-8.669 1.92-13.92 .183-1.316.75-2.508.96-3.84 .137-.865-.122-1.745 0-2.64 .087-.632.64-1.284.72-1.92 .129-1.018-.137-2.033 0-3.12 .836-6.615 1.393-14.792 2.16-21.84 .282-2.587 1.104-6.382 1.2-9.84 .049-1.754.25-4.286-.24-5.52-.605-1.527-2.651-1.617-4.319-2.88-5.255-3.977-4.855-15.128-.96-20.4 .321-.559 1.389-.371 1.92-.72 2.067-2.181 4.345-5.083 7.68-5.04 3.499.045 4.881,3.571 6.96,5.76 .163.796 1.651.269 1.92.96 2.536,6.665 2.166,16.069-2.88,19.68-1.068.765-2.683.779-3.6,1.68-2.437,2.391-1.724,9.293-2.4,13.92-.95,6.491-1.658,13.033-2.4,19.92-.192,1.787.015,3.67-.239,5.52-.177,1.284-.767,2.522-.96,3.84-.279,1.9-.127,3.816-.48,5.76-.735,4.049-1.798,8.158-1.92,12.24 1.469.755 2.092-.782 3.6-.72-2.545,1.292-3.859,1.811-4.319,5.52-.078.626-.497,1.712-.24,2.64 .023.086.47.553.479.48-.065.486-.762,1.11-.96,1.68-.652,1.879-.936,4.487-1.199,6.72 3.64,1.228 9.616,1.223 13.92.72 3.782-.442 7.365.396 11.04-.48 .997-.238 1.861-.963 2.88-1.2 2.521-.586 4.938-.267 6.96-1.2 .717-.331 1.21-1.006 1.92-1.44 1.719-1.051 4.3-1.226 5.04-3.12 .472-1.188-.782-1.177-.24-2.64-.192-.521-2.215-1.982-.96-1.68 .154.857 2.843,2.478 2.16,4.8-.19.649-5.662,4.058-6.72,4.56-1.675.796-4.737.842-6.96,1.68-1.538.58-4.748,1.487-6.96,1.68-2.596.226-4.728-.322-6.721,0-.68.11-1.497.642-2.16.72-1.558.182-3.074-.302-4.8-.48-2.618-.268-5.347.105-8.16-.238zm-70.56-213.12c1.227,1.601 2.263,3.652 4.08,3.84 .089-1.515-.562-3.256-1.2-4.8-.6-1.453-1.441-3.231-2.16-4.56-.918-1.699-2.358-3.833-4.32-4.32-1.263,5.13 1.731,7.402 3.6,9.84zm-3.6-3.6c-.157-1.604-.809-2.711-.96-4.32-1.344-.816-1.823-2.498-3.84-2.64-.009,3.063 1.461,6.688 3.84,8.16v.96c.805.555 1.263,1.688 1.92,2.64 .606.878 1.26,2.243 2.16,2.16 1.55-3.088-1.992-4.978-3.12-6.96zm5.28-2.88c.195-2.435-.84-3.64-2.88-3.84 .541,1.699 1.357,3.123 2.88,3.84zm7.44,8.88c-.506-5.799-.123-12.089-5.76-12.48h-.48c-.796,7.84 2.192,13.964 6.48,17.52 1.063-1.373-.076-3.155-.24-5.04zm-16.8-3.36c1.562,1.743 3.675,3.636 5.52,4.32-1.807-4.433-5.75-6.73-6.96-11.76-.946-.334-1.369-1.191-2.64-1.2-.238,3.381 2.069,6.396 4.08,8.64zm23.04-3.12c-.226-1.833-1.362-4.828-3.12-4.8-1.199.019-2.713,2.407-2.88,3.36-.109.621.192,1.458.239,2.16 .214,3.17-.01,7.667 1.44,9.12 .943-.176 1.739-.5 2.64-.72 .879-2.054 2.116-5.577 1.681-9.12zm-29.76-3.36c2.107,2.853 3.521,6.399 6.96,7.92-1.489-3.071-4.117-5.003-5.28-8.4-.739.179-.461-.659-1.2-.48h-.48v.96zm29.28,12.24c1.228.679 1.608-.734 3.12-.48 2.032-2.183 4.998-9.516 1.68-11.76-4.406,1.275-3.462,7.898-4.8,12.24zm7.44-10.56c-.692,2.045-.82,4.269-1.44,6.24s-2.059,3.509-1.92,5.28c1.461-.219 2.008-1.932 2.88-3.12 1.688-2.298 3.579-4.809 2.64-8.88-1.095-.215-1.361.4-2.16.48zm-38.64,2.4c.35.709 2.45.612 3.12.24 .551-2.111-3.272-1.788-3.12-.24zm47.28.24c-1.944-.243-4.529.958-6.24,2.88-.928,1.043-1.219,2.292-2.16,3.6-1.396,1.94-3.766,3.014-1.92,5.04 .696.614 1.381-.42 1.681,0-.103.458-.687.434-.48,1.2 2.048.225 2.285-.416 3.6-1.2 .672-.4 1.536-.464 1.921-.72 1.222-.812 2.73-2.319 4.079-3.6 2.612-2.479 4.939-4.355 5.28-8.16-1.796-.196-2.707.493-4.08.72-2.156,3.923-4.259,7.9-8.16,10.08 2.158-3.138 6.65-5.167 6.479-9.84zm11.04,2.88c-5.89-.894-8.767,3.967-12,6.72-1.053.896-2.903,1.157-2.64,2.88 2.659-.781 4.551-2.329 6.96-3.36-.002.555-1.859,1.282-.721,1.44 1.104-.172 1.629-1.204 2.641-1.68 2.609-1.229 6.088-1.298 7.92-3.36-3.521-1.356-5.907,2.351-8.88,3.12 2.073-2.088 5.524-2.796 6.72-5.76zm-1.2,5.04c-3.419,1.21-6.727,2.931-8.399,5.04 3.355-.834 6.257-3.203 9.6-3.84 1.905-.363 3.336-.446 4.32-1.68-1.925-1.567-3.625-.191-5.521.48zm-39.36,4.08c1.04,2.522 1.646,4.915 2.88,6.72 .638-2.507-.502-5.237-1.2-7.2 2.34,2.14 1.129,5.677 2.16,8.4 .664,1.753 2.869,2.931 3.359,4.8 .973,3.705-.56,8.847-1.439,13.68-.753,4.135-1.276,8.488-1.92,12.72-.522,3.435-1.608,7.159-1.92,9.6-.605,4.729-1.378,8.462-1.92,12.48-.108.797.087,1.574 0,2.4-.178,1.684-.842,3.396-.96,5.04-.097,1.352.105,2.636 0,3.84-.132,1.52-.728,2.995-.96,4.56-1.203,8.121-1.669,16.853-2.88,25.68-.556,4.049-.486,8.318-.72,12.48-.238,4.235-1.129,8.488-1.44,12.48-.341,4.383-.146,8.624-.72,12.72-.114.815-.657,1.584-.72,2.4-.164,2.124.401,4.848.24,7.44-.531,8.542-.81,17.863-1.2,27.12-.18,4.26-.304,9.212.96,11.28 .623.417.441,1.639 1.68,1.44 .18-11.074.342-21.955.72-32.4 .51-14.092 1.708-27.247 2.88-40.8 .441-5.107.876-10.247 1.44-15.36 .554-5.022 1.034-10.127 1.44-15.12 .412-5.064 1.37-9.945 1.92-14.88 .781-7.011 1.555-13.6 2.399-19.68 1.062-7.639 2.203-14.719 3.601-21.6 .282-1.393 1.017-2.758 1.2-4.08 .872-6.293 1.943-11.352 5.76-14.4 4.771-.526 5.043-6.311 8.88-7.92 1.663-.697 4.054.152 4.56-2.4-1.856-.401-3.423-.056-5.76-.24-2.76,1.719-3.689,5.27-5.76,7.68-.585.622-1.268,2.404-2.16,1.92 1.229-3.245 5.053-4.743 4.8-8.88-.11-1.818-2.575-4.995-3.84-5.28-.801-.181-2.554.36-3.6.72-3.38,1.161-3.633,3.755-3.84,7.92-.107,2.145.584,4.199-.48,5.04-.453-3.623 1.166-7.736-.24-10.8-1.363-2.973-5.214-2.634-7.68-4.56-.759,2.291-.182,3.435.48,5.04zm-1.68-.24c-.466-2.813-2.912-3.648-5.28-4.56 .892,2.388 3.294,3.266 5.28,4.56zm45.6-2.64c-3.354,1.083-6.222,2.083-8.881,3.12-1.233.481-2.844.613-3.359,1.68 2.997-.062 5.759-1.876 8.88-2.4 2.476-.416 5.597.065 6.96-2.16-1.175-1.501-2.17-.702-3.6-.24zm1.68,2.4c-2.916,1.084-7.114.886-9.601,2.4 3.606-.394 8.146.146 11.04-.96-.081-.878-.821-1.098-1.439-1.44zm-24.72,8.64c-.4.587-1.574,1.201-.96,1.92 1.456-2.384 4.453-3.227 6-5.52-3.106-.291-3.897,1.922-5.04,3.6zm-70.08,26.16c-.106-.453.327-1.446-.48-1.2-5.047,2.122-5.901,15.502 1.2,15.12-.088-1.754-.996-3.959-.24-5.76-.004,2.484.201,4.759 1.44,6 2.078.59 4.192-.3 5.52-1.2 3.334-2.89 3.517-12.935-1.44-14.16-1.1,2.028 1.579,3.504.72,5.28-.438-3.41-3.729-7.463-6.72-4.08zm1.68,15.12c.335,10.386.72,21.636.72,33.36 0,3.238-.766,7.827 2.4,7.68-.22-13.805-1.879-27.685-.24-41.04-1.241-.245-1.476-.003-2.88,0zm36,115.2c-.499-3.222-.877-6.681-1.2-10.08-.64-6.733-1.129-13.824-1.44-20.88-.474-10.774.697-18.775.24-28.32-.144-3.011-.718-4.825-1.2-7.2-1.092-5.381-2.085-11.014-5.52-12.96-.976-3.904-3.76-6-5.76-8.88-2.33-.15-3.27-1.69-6-1.44-.302.099-.491.31-.48.72-.952,1.576-.886,4.749-1.2,6.24-.287,1.36-.723,2.296-.72,3.84 .005,2.565.538,5.467.48,8.64-.028,1.517-.485,2.819-.24,4.32 .276,1.686 1.248,3.29 1.68,5.04 .168.681.04,1.41.24,2.16 .15.563.635,1.129.72,1.68 .125.812-.168,1.45 0,2.16 .651,2.755 2.062,5.463 3.12,8.16 1.065,2.717 2.677,4.873 4.08,7.44 2.649,4.849 3.726,10.523 5.28,15.84 .784,2.682 1.848,5.228 2.64,7.92 .405,1.376.642,2.9.96,4.32 .29,1.295.401,2.857 1.44,3.84 .041-.359-.086-.886.24-.96 .077.957.013,1.773-.48,2.16 1.696,1.173.75,4.638 1.2,6.96 .399,2.061 1.273,4.05 1.68,6 .481,2.311.351,4.511 1.44,6.48 1.028-4.659-.484-8.574-1.2-13.2zm15.6,76.32c-3.373,4.746-5.535,9.604-7.439,15.119-1.007,2.916-1.622,5.724-2.4,8.881-.718,2.91-1.216,6.11-2.16,9.359-1.287,4.431-.02,8.687.24,13.681 .194,3.721.098,7.678.48,11.52 .4,4.017.812,7.964 1.2,11.76 .286,2.788.456,5.696.96,8.16 .403,1.973 1.445,3.994 2.16,5.76 .785,1.94 1.262,4.325 2.64,5.521-1.506-14.558-3.6-29.66-3.6-45.601 0-18.918 3.432-33.549 11.52-43.92 2.174-2.787 4.524-5.693 7.2-8.64 3.769-4.15 8.162-7.804 12-11.52 4.072-3.944 8.409-7.119 12.96-10.8 6.519-5.274 13.29-9.098 24.239-7.68 .89-1.511.67-4.131 1.44-5.76 .181-.98-.512-1.088-.96-1.44 1.771-.629 1.637-3.163 1.68-5.52-1.501-.12-2.884.72-4.319.96-1.837.307-3.333.399-5.04.96-1.484.487-3.169.823-4.561,1.44-3.035,1.345-6.003,4.251-8.88,6.48-4.655,3.606-8.253,7.201-12,11.04-2.628,2.691-5.543,4.878-7.92,7.44-1.285,1.385-2.538,2.877-3.12,4.08 1.928-1.354 3.633-4.206 5.521-4.8-7.959,7.836-15.584,14.716-21.841,23.52zm-10.56,23.28c.706-3.027 1.997-6.465 2.16-9.12 .146-2.381-.384-4.844-.48-6.96-.12-2.64.156-5.062.24-7.439 .162-4.595-.231-9.077.96-13.68 .469-1.813 1.405-3.733 2.16-5.52 .716-1.694 1.774-3.427 2.4-5.28 .369-1.092.388-2.43.72-3.6 .327-1.154.87-2.224 1.2-3.36 2.179-7.507 2.469-15.061 3.84-23.04-1.451,1.017-.91,2.892-1.2,4.32-.286,1.41-.933,2.92-1.2,4.32-1.252,6.553-1.986,12.38-3.84,18.24-.875,2.766-1.636,5.857-2.88,8.4-.517,1.055-1.401,1.823-1.92,2.88-.535,1.09-.997,2.647-1.44,4.08-.936,3.023-1.523,5.621-2.16,9.12-.297,1.629-.819,3.325-.96,4.8-.553,5.788.14,13.06 0,18.48-.02.77-.051,2.09-.72,2.64 .187-2.826-.354-4.926-.24-7.68-6.044-9.301-12.127-18.647-16.8-28.8-1.246-2.707-2.144-5.518-3.36-8.16-.389-.845-1.102-1.533-1.44-2.4-.731-1.875-1.357-3.848-2.16-5.76-1.626-3.872-2.683-7.743-4.08-11.76-.667-1.919-1.685-3.816-2.16-5.76-.57-2.33-.769-4.778-1.44-7.2-2.874-10.374-5.226-22.526-3.6-34.8 .265-1.998.971-3.955 1.2-6 .644-5.757.632-11.386 1.68-16.56 .215-1.061.845-1.858.96-2.88 .098-.867-.316-1.878-.24-2.88 .05-.663.571-1.386.72-2.16 .504-2.632.865-5.283.96-7.68 .088-2.222-.17-6.108-.72-7.68-.279-.798-1.102-1.504-1.44-2.4-1.167-3.092-1.22-7.114-2.64-10.32-2.718-1.842-3.338-5.782-5.52-8.16-3.02-.34-3.627-3.092-6.48-3.6 .199,1.841 1.124,3.472 1.68,5.28 .597,1.939 1.111,3.886 1.44,6 .673,4.326 1.418,8.873 1.68,13.44 .06,1.044-.3,2.095-.24,3.12 .113,1.933.824,3.786.96,5.76 .76,11.03-.205,21.957 1.2,32.88 .542,4.209.843,8.411 1.44,12.48 .193,1.318.78,2.576.96,3.84 .739,5.204 1.374,10.854 2.4,15.12 .266,1.107.25,2.252.48,3.36 1.28,6.158 3.506,12.26 5.04,18 2.195,8.214 5.795,15.11 8.88,22.08 2.963,6.695 6.335,14.085 10.08,20.64 3.88,6.79 8.467,13.351 10.08,20.88 .781,3.646.272,7.601.96,10.8-.071.418.931.842.72,0 .146-.014.284-.036.24-.24 .774-3.196 1.178-6.9 1.92-10.081zm-35.04-164.88c.306.821.053,1.521.24,2.16 .294,1.003 1.299,1.659 1.68,2.64 .94,2.419 1.208,7.014.96,10.08-.246,3.044-1.415,6.089-1.44,9.12-.034,4.126 1.363,8.477 1.44,12.48 1.189-1.09 1.675-3.076 2.16-4.8 .534-1.897.887-3.993 1.2-6 .091-.892-.973-.627-.72-1.68 .667-4.662 1.453-11.939-1.2-15.12-.737-3.583-2.168-6.471-3.6-9.36-.307-.013-.333-.308-.72-.24v.72zm110.88,5.52c1.338-.473 1.786-2.728 2.88-3.84 .568-.578 2.205-1.157 1.2-1.68-1.498,1.702-3.708,2.692-4.08,5.52zm7.68.48c.197-.764.153-1.767.48-2.4 .477.003.306.655.96.48 .271-.449.284-1.156 1.2-.96 .03-1.311-.149-2.411-1.2-2.64-.372.546-.5.454-1.2.24-.971,1.236-2.266,4.311-.24,5.28zm-.24-6c-.752.381-2.527,1.712-1.2,2.64 .839-.441 1.071-1.489 1.2-2.64zm7.44,5.04c-.078-2.642-1.747-3.692-3.359-4.8-.09,1.879 2.054,3.523 3.359,4.8zm-13.92.48c-.295.771-.818,2.466.24,3.12 1.644-2.437 2.812-5.348 4.32-7.92 .252-.013.188-.308-.24-.24-1.059,1.112-3.762,3.582-4.32,5.04zm11.52,0c.313-1.351-.342-3.385-1.681-3.84 .423,1.418.326,3.355 1.681,3.84zm-12.24,8.4c-.082-3.198-1.216-5.344-1.2-8.64-1.326,1.147-2.162,3.434-2.4,5.52-.233,2.048-.196,6.405.48,7.92 1.801,4.032 4.468,6.255 9.6,6.48 4.074.179 6.683-1.922 8.16-5.04 .873-1.841.983-3.701 1.44-5.76 .838,2.075-.964,4.768-.72,6.24 1.533-2.425 2.635-7.691 2.159-11.76-.136-1.164-.468-2.829-1.439-3.36-.196,1.561.257,5.819 0,7.44-.451-3.149-1.183-6.017-2.4-8.4-2.897,2.223-3.107,7.132-4.08,11.28-.455-2.265-1.019-4.422-1.439-6.72-1.214-1.426-2.373-2.907-2.641-5.28-.307-.013-.332-.308-.72-.24-1.999,3.04-4.037,6.042-4.8,10.32zm9.12-2.64c1.731-1.103 2.983-6.028.479-7.2-2.569,1.537-1.686,4.902-.479,7.2zm-47.28,13.2c-2.665-.796-3.718,2.022-6,2.4-.894,1.769-3.003,3.045-4.08,5.04-.987,1.829-1.363,4.202-2.16,6.24-.808,2.066-2.446,4.255-1.2,6.48 4.041-7.752 8.889-15.143 16.561-19.2 1.301-.688 2.922-.675 3.84-2.16-2.315-.832-5.309-.005-6.961,1.2zm-16.56,3.12c-2.066,2.734-4.548,5.053-5.761,8.64-.915.125-1.441.638-1.92,1.2-.637,3.523-1.518,6.802-1.439,11.04-.162.878-.965,1.116-1.2,1.92-1.475,8.264.343,15.412.72,24 .181,4.097-.489,8.555.24,11.52 1.246-13.746 3.441-25.542 7.2-36.24 2.342-6.666 5.753-12.552 7.92-18.96 1.585-.591 2.064-2.234 3.12-3.36 1.063-1.135 2.845-1.688 3.359-3.36-4.694-.351-8.137,2.564-12.239,3.6zm59.28-.96c-.123,1.663.288,3.177.24,4.8-.092,3.15-.621,6.632-.96,9.84-.184,1.733-.044,3.361-.24,5.04-.181,1.547-.82,3.097-.96,4.56-.556,5.813-1.264,11.5-1.92,17.28-.635,5.595-1.779,11.147-2.399,16.8-1.207,10.987-3.985,21.762-5.761,32.88-1.672,10.468-4.507,21.175-6.72,31.919-1.144,5.552-3.161,12.178-4.56,17.04-1.272,4.423-2.093,9.584-3.601,13.44-1.837,4.699-3.105,9.488-5.04,14.16-.97,2.344-1.445,4.771-2.399,7.2-1.894,4.818-3.577,9.576-5.04,14.159-.782,2.45-1.393,4.917-2.16,7.44-.718,2.357-1.731,4.741-2.4,7.2-.704,2.589-1.095,5.298-1.92,7.92-2.944,9.359-5.125,20.223-7.2,31.439-.978,5.29-1.742,11.02-2.159,17.04-.438,6.307-1.241,13.022-.48,18.48 .274,1.967 1.078,4.044 1.68,6 .572,1.858 1.248,3.797 2.4,5.28-4.461-20.144.477-39.779 3.12-57.841 .891-6.083 2.761-11.892 4.319-17.52 1.55-5.595 3.359-11.035 5.04-16.56 1.695-5.569 3.175-11.148 5.04-16.561 2.818-8.174 5.88-16.087 8.16-24.24 1.201-4.292 2.712-8.118 3.84-12.479 1.861-7.193 4.244-13.833 6-21.12 1.098-4.552 2.224-9.209 3.12-13.2 2.393-10.644 4.299-20.872 6.24-31.44 4.442-24.185 7.817-49.643 9.6-77.28 .038-.462.946-2.002 0-1.92-.521-.36-1.351-.409-2.159-.48-.346.139-.587.378-.721.724zm-115.2,5.28c-.999,3.335-.273,6.781 0,10.56 .516,7.133 1.089,14.556 2.16,21.6 .707,4.647 1.604,9.121 2.4,13.68 .774,4.43 2.098,8.68 3.12,12.96 1.048,4.388 1.905,8.756 3.12,12.96 1.2,4.153 2.578,8.207 3.84,12.24 1.308,4.182 2.131,8.523 3.6,12.48 2.291,6.171 4.038,13.718 7.68,18.24 .379.47 1.144,1.942 1.44.96-2.732-9.438-6.004-18.629-8.88-28.081-.708-2.326-1.354-4.641-2.16-6.96-.822-2.365-1.372-4.78-2.16-7.2-1.135-3.484-2.525-6.819-3.36-10.32-.332-1.393-.179-2.871-.48-4.32-.333-1.602-1.042-3.16-1.44-4.8-2.154-8.884-3.773-17.34-5.04-27.12-.481-3.718-1.306-7.451-1.68-11.28-.513-5.251-.692-10.572-1.44-16.08-.014-.146-.036-.284-.24-.24-.302.099-.49.311-.48.721zm48.48,45.36c1.335-.425.755-2.765 1.68-3.6 2.945-9.936 5.721-20.04 7.44-31.2-.014-.146-.036-.284-.24-.24-4.409,10.231-7.936,21.344-8.88,35.04zm-8.16-19.2c-.827,2.216-1.281,5-2.16,7.44-.929,2.581-2.419,5.025-2.64,7.2-.099.969.203,2.043.24,3.12 .032.922-.714,2.025.24,2.64 1.715-6.361 3.479-11.801 5.76-17.52 .776-1.947 2.117-3.603 2.399-5.52 .322-2.183-.067-4.173.24-6.48 .301-.819 1.19-1.05 1.44-1.92-.467-1.425.948-3.263-.24-3.84-1.749,4.436-3.282,9.528-5.279,14.88zm-42.72,6.96c.444-6.964 3.5-13.749 1.2-20.64-.904,5.218-2.83,14.397-1.2,20.64zm25.44-13.68c1.419,7.401 2.532,14.859 3.84,22.08 .457,2.521 1.143,4.971 1.44,7.44 .494,4.094.236,8.921 1.44,12.72 .329,1.038.954,1.799 1.2,2.88 .834,3.664.326,7.521.48,11.28 .128,3.122.966,6.14.96,9.36-.01,5.7-.244,11.443.24,17.28 1.267-1.262.932-3.282 1.44-5.04 .585-2.025 1.439-3.796 1.44-6.48 .004-9.531-1.024-21.048-.96-31.2-.241-.771-.951-.068-1.44-.24-1.743-.611-1.598-2.882-1.92-5.04-.916-6.128-2.135-12.189-3.36-17.52-1.408-6.128-2.611-13.094-4.32-18-.307-.013-.333-.308-.72-.24 .037.283-.041.681.24.72zm-23.28,7.68c-.727,4.814-.917,10.101-.72,15.36 .409,10.928 3.336,19.956 6.24,28.32 4.025,11.597 8.915,22.409 13.92,31.92-.145-3.059-1.695-5.758-2.64-8.64-1.001-3.052-1.735-6.243-2.64-9.36-.888-3.062-2.021-6.052-2.88-9.12-4.453-15.92-8.342-31.768-10.8-49.2-.337.063-.274.527-.48.72zm41.28,6.72c-.708,1.937-1.756,3.968-2.4,6-4.528,14.289-2.625,33.724-2.16,51.12 1.444-.722 1.869-2.606 2.4-4.08 3.046-8.447 5.159-17.1 6-27.6 .339-4.23.745-8.592.72-12.72-.04-6.531-1.533-13.023-1.44-19.44-.307-.013-.332-.308-.72-.24-.926,2.301-1.524,4.562-2.4,6.96zm6.96,19.92c.368-1.156 1.361-2.952.72-4.32 .048,1.572-1.049,3.265-.72,4.32zm41.039,20.4c-4.438,2.156-8.747,6.377-13.199,9.84-4.489,3.492-8.457,7.092-12.24,10.8-7.024,6.885-16.028,16.061-20.4,25.68-2.458,5.408-3.556,11.949-4.32,18.96-1.079,9.906-.433,19.717.96,29.04 .915-2.988.792-6.051 1.92-8.641 .377-.865 1.067-1.607 1.439-2.399 1.603-3.413 2.669-6.862 4.801-9.84 1.732.11 3.106-1.737 5.039-2.4 1.679-.575 5.363-1.41 6.48-1.2 2.192.413 2.957,2.39 4.56,4.08 2.873.263 3.354,2.887 3.841,5.04 .316,1.399.039,3.051.479,4.561 .376,1.288 1.291,1.566 1.68,2.88 .445,1.5.901,3.682.96,5.52 .071,2.193-.874,4.426-.96,6.96-.034,1.014.327,2.03.24,3.12-.273,3.42-2.306,6.762-3.12,10.561-.222,1.036.004,2.086-.239,3.119-.379,1.606-1.46,3.381-2.16,5.04-2.185,5.176-4.644,10.284-6.24,15.601-1.169,3.893-1.859,8.011-2.4,12.24-1.265,9.897-.694,20.096.24,29.76 .385,3.978.402,8.202 1.92,12.479 .486-7.12.365-13.044 1.2-19.92 .222-1.824.893-3.671 1.2-5.52 3.613-21.708 9.32-41.014 15.6-59.521 1.739-5.126 3.425-10.462 5.04-15.359 .574-1.742 1.38-3.331 1.92-5.04 .312-.987.176-1.94.48-2.88 .237-.734.904-1.358 1.2-2.16 1.277-3.471 2.213-7.104 3.119-10.32 2.562-9.087 5.297-17.751 7.44-26.88 3.414-14.54 6.619-29.37 9.6-45.12-5.249-.96-12.136.004-16.08,1.919zm-80.879,67.44c-1.668-.963-2.399-2.711-3.6-4.08-1.223-1.395-2.807-2.431-4.08-3.84-.705-.78-1.167-1.777-1.92-2.641-4.499-5.157-8.7-10.789-13.2-15.6-.807-.863-1.481-2.059-2.16-2.641-.684-.586-1.823-.878-2.64-1.439-2.417-1.662-4.638-3.637-6.96-5.28-3.26-2.307-6.689-4.682-10.8-5.76-4.384-3.13-11.354-6.098-16.8-8.64-2.009-.938-4.279-2.146-6.24-2.4-.744-.097-1.554.278-2.4.24-.906-.041-2.112-.554-3.36-.72-1.22-.162-2.639-.081-3.84-.24-1.673-.221-3.515-1.208-4.56-.48-1.845,1.285-4.772,1.105-7.2,2.16-1.233.536-2.796,1.678-3.36,2.4-2.501,3.203-1.535,7.774 1.44,9.12 3.031,1.371 6.677.166 10.56.48 7.616.616 15.675,2.97 22.8,5.76 2.538.994 5.208,2.377 7.44,3.36 .814.358 1.813.599 2.64.96 5.086,2.223 9.131,5.536 13.2,8.16 1.461.941 3.08,1.69 4.56,2.64 7.337,4.705 14.005,10.314 20.88,15.12 1.251.874 3.233,2.206 3.12,3.6-4.85-3.43-9.567-7.121-14.4-10.8-2.393-1.821-4.748-3.805-7.2-5.52-2.535-1.772-5.261-3.163-7.92-4.8-9.085-5.593-18.745-11.049-29.52-14.641-1.372-.457-3.285-1.396-4.8-.72 2.695,1.305 5.222,2.778 8.16,3.84 2.822,4.059 7.667,6.094 12,8.64 .848,2.176 3.033,2.738 4.8,3.841 3.297,2.055 6.417,4.698 10.08,6.239 .316.645.645,1.276.96,1.92 2.724,1.318 5.106,3.269 7.68,4.561 .884.443 1.945,1.054 2.88,1.439 2.421.999 5.232,1.19 7.68,2.16 1.858.736 3.63,2.09 5.28,3.12 1.748,1.092 3.512,2.173 4.8,3.601 1.888.351 3.02,1.459 5.04,1.68 1.219,1.58 2.68,2.92 4.08,4.32 1.417,1.416 2.529,3.307 4.56,4.079-1.832-5.125-5.485-8.433-7.68-13.198zm-83.28-37.44c3.796,1.036 7.396,2.725 11.04,4.08 4.326,1.608 7.954,3.971 11.76,5.52 1.224.498 2.694,1.891 3.6,1.2-1.631-.458-2.593-1.704-4.08-2.64-1.076-.677-2.633-.836-3.6-1.68-.663-.578-.75-1.589-1.44-2.16-.661-.548-1.993-.967-3.12-1.44-1.051-.441-2.196-.852-3.36-1.2-3.722-1.113-6.853-2.357-11.28-2.399-.072.471.324.475.48.719zm170.88,92.64c3.365-4.234 7.812-7.388 12-10.8 .285-.755.81-1.27.96-2.16 3.016-2.802 5.824-6.184 7.439-9.84 2.216-5.013 5.383-9.392 6.24-15.359 .21-.93-1.048-.393-.72-1.44 1.21-4.32 1.448-8.142 2.399-12.72-1.333-1.367-1.286-3.746-2.399-5.28-.358-.493-1.411-.991-2.16-1.68-1.24-1.142-1.953-2.312-3.12-2.641-4.819-1.355-8.025,3.283-12,4.801-1.649,3.186-3.562,6.02-5.28,8.88-1.136,1.89-2.172,2.985-3.119,5.04-1.192,2.582-2.062,5.207-2.4,8.159-2.032,2.707-3.249,6.84-3.6,10.801-.082.915.223,2.015 0,2.88-.245.946-1.322,1.722-1.681,2.64-.829,2.125-.921,4.608-1.439,6.72-.522,2.127-1.333,3.97-2.16,6-1.596,3.918-2.778,7.999-4.8,11.761-1.946,3.621-3.857,7.206-5.761,10.56-1.98,3.492-4.547,6.701-5.279,10.8 1.488-2.562 3.096-5.284 4.8-7.92 1.696-2.623 3.056-5.682 5.04-7.439-3.224,5.682-6.713,11.424-9.36,17.52-1.33,3.063-3.088,6.09-2.64,9.84 6.693-16.03 16.255-29.189 29.04-39.123zm-39.6,19.68c1.067-7.468 4.341-13.34 6.721-18.96 .489-1.157.69-2.605 1.199-3.84s1.441-2.278 1.681-3.36c.241-1.093.01-2.311.24-3.36 .808-3.688 3.153-6.747 3.359-10.319 .043-.744-.459-1.536-.479-2.4-.031-1.247.53-2.725.72-4.08 .196-1.404.505-2.924.479-4.32-.022-1.279-.072-3.337-.479-4.56-.248-.743-1.387-1.704-1.68-2.64-.916-2.921-.118-6.299-2.16-8.881-1.854-.311-2.52-1.669-3.84-3.119-.716-.786-1.155-1.517-2.4-1.92-.546-.178-2.729.313-3.6.479-3.689.703-5.027,2.502-7.681,3.6-1.015,1.844-2.081,3.909-3.12,6.24-.455,1.021-.697,2.18-1.199,3.36-.448,1.053-1.309,2.005-1.68,3.12-.948,2.842-1.143,5.903-1.68,9.12-.177,1.059-.634,2.158-.72,3.119-.18,2.014.489,4.672.48,7.2-.006,1.915-.008,2.907.24,4.561 .133.885.075,2.073.24,2.64 .242.829 1.055,1.365 1.44,2.16 1.315,2.718 1.465,6.021 2.879,8.4v1.92c.661,1.096 1.443,2.194 1.92,3.6 .729,2.148.524,3.877.721,6.24 .246,2.968 1.018,6.11 1.2,9.12 .214,3.535.021,7.14.239,10.319 .058.831-.428,2.216.721,2.641 1.319-20.089.081-43.665 2.64-61.2 .174-1.192-.227-2.889.96-3.601-2.145,11.722-1.574,27.193-2.4,39.841-.357,5.475-.177,11.56-.239,17.52-.064,6.138-.935,12.381-.48,18 .689,8.517.933,18.033 2.64,26.4 .337,1.65 1.115,3.31 1.44,5.04 .356,1.892.446,3.765.96,5.52 .473,1.616 1.247,3.189 1.68,4.8 .916,3.407 1.246,5.168 2.641,7.44 2.356,3.842 5.386,6.213 8.88,8.64 1.647,1.145 2.599,1.986 3.84,3.12 .531.485 1.176,1.107 1.68,1.44 2.723,1.795 6.245,3.351 9.36,4.56 .941-.898 1.386-2.294 1.2-4.32-3.651-3.021-8.206-4.529-11.76-7.439-3.185-2.607-6.95-5.989-9.12-10.08-.528-.995-.901-2.361-1.44-3.6-1.525-3.506-2.959-7.657-3.84-11.761-1.212-5.643-2.149-11.747-2.88-17.76-.739-6.084-1.516-12.444-1.92-18.72-.406-6.313-.918-12.723 0-18.72 .315,3.996-.469,9.439.72,12.479 .525-4.834 1.063-9.38 1.677-13.679zm-47.52-62.64c5.121,6.062 9.879,12.2 14.16,18.96 5.712,9.021 9.849,19.442 12.96,31.2 1.524,5.762 2.75,11.707 4.32,17.76 3.061,11.809 5.241,23.964 8.16,36 1.485,6.125 2.681,12.161 5.04,17.28-.916-5.994-2.145-11.927-2.88-18-.601-4.963-.684-10.138-1.2-14.64-.182-1.59-.239-3.29-.479-4.8-.69-4.332-2.417-8.571-3.12-12.96-.362-2.263-.658-4.429-1.2-6.721-.547-2.314-.618-4.757-1.2-6.96-.312-1.186-.957-2.356-1.439-3.6-.479-1.232-.777-2.561-1.2-3.84-2.903-8.789-6.691-17.667-10.56-24.96-1.21-2.283-2.303-4.563-3.36-6.721-1.694-3.457-3.758-6.264-6-9.119-1.521-1.938-2.937-4.146-4.56-5.761-.884-.879-2.098-1.518-3.12-2.399-.976-.843-1.693-2.06-2.64-2.88-.938-.813-2.328-1.366-3.36-2.16-1.08-.831-2.117-1.563-3.12-2.4h-.72c1.526,2.608 3.633,4.489 5.518,6.721zm39.36,75.12c.647-5.931-.228-11.12-.721-16.8-.265-3.055-.22-6.272-1.2-8.64-.427-1.031-1.336-1.849-1.68-2.88-.235-.707-.025-1.448-.24-2.16-.527-1.756-1.603-4.374-2.16-5.76 .852,13.229 3.39,24.771 6.001,36.24zm51.36,26.88c-3.4.091-6.958,3.083-8.88,4.561-2.781,2.138-4.396,4.053-6.72,6.72-4.854,5.57-8.969,13.68-8.641,22.8 .06,1.655.578,3.61.96,5.28 .326,1.425.632,3.78 1.44,4.8 .668.844 2.091,1.081 3.12,1.681 1.065.62 1.935,1.871 3.36,1.68-1.626-7.063-5.564-13.124-3.841-20.88 .867-3.899 4.411-7.737 7.2-10.08 1.974-1.658 3.924-2.384 6.48-3.601 4.508-2.146 10.903-4.172 16.319-4.56 4.353-.312 7.779-.422 11.521-.72 2.292-.183 4.68.057 6.72-.48 .976-.257 2.205-1.25 3.36-1.439 3.452.324 9.776,1.335 13.2,0 .973-.38 1.306-1.322 2.159-1.44 2.408-.225 5.296-.377 7.92-.72 2.53-.331 4.667-1.447 7.2-2.4 5.374-2.021 11.146-.888 14.4-4.319 .471-4.973 6.126-6.937 5.52-12.48-.127-1.165-1.012-1.451-.96-3.12-.846-1.933-3.693-3.688-5.04-5.28-.647-.766-.731-1.607-1.439-2.159-1.493-1.165-3.307-1.097-5.521-1.44-1.067-.166-2.197-.526-3.359-.72-2.752-.459-5.795-1.477-8.641-1.681-3.897-.278-7.49.496-11.52.48-1.476-.006-2.896-.354-4.32-.24-6.159.495-11.125,3.959-16.32,4.08-5.219,3.261-10.303,6.656-16.319,9.12-6.393,5.546-12.461,12.941-18.48,18.96-2.127,2.127-4.76,3.859-6.72,6-.709.774-1.382,2.269-2.4,3.6-2.408,3.147-5.313,7.676-6.72,11.28-1.13,2.897-1.579,11.104-.96,15.84 .202,1.548.479,3.108 2.4,3.12-.777-4.803-1.533-9.279-.96-14.399 .898-8.037 6.532-15.25 11.04-20.16 1.8-1.961 3.63-3.574 5.76-4.8 6.672-3.841 14.01-7.292 21.6-9.841 1.412-.474 2.871-.505 4.32-.96 1.214-.381 2.367-1.259 3.6-1.68 2.71-.924 5.116-.921 7.44-.96 1.494-.025 3.23-.565 4.8-.72 1.785-.177 3.646-.036 5.28-.24 5.338-.668 10.354-2.304 15.359-2.64-4.861.989-9.875,2.439-15.359,3.119-3.036.377-6.324.015-9.36.96 1.689,1.911 5.593,1.607 7.68,3.12-2.575-.602-4.966-1.343-7.199-2.159-.727-.266-1.76-.889-2.4-.961-1.849-.206-4.8.951-7.2,1.681-3.719,1.129-7.406,2.336-10.319,3.359-3.53,1.241-7.6,2.161-9.601,4.561 5.221,1.099 9.35,3.29 14.4,4.56-6.186-.205-9.249-4.245-15.359-4.083zm-122.64,44.64c9.323,1.247 19.533.391 29.04-.24-.312-.529-1.39-.845-1.92-.96-.899-.196-1.774-.304-2.64-.48-3.567-.728-6.874-1.591-9.84-2.399-5.014-1.367-10.212-2.004-15.84-2.641-3.763-.425-7.473-1.043-11.04-1.199-3.424-.151-7.144.473-9.6.479-.847.003-1.594-.3-2.4-.24-1.921.144-3.183.887-4.8,1.2-1.438.279-2.924.14-3.84.48-.984.365-1.367,1.231-2.4,1.68-7.833.166-13.909,2.091-19.68,4.32-.821-.021-.139,1.461-.96,1.439-4.325.956-7.268,3.293-10.8,5.04-1.503,2.748-4.427,5.562-6.24,8.4-1.374,2.15-3.574,5.55-3.84,7.92-.252,2.244-.054,5.395.24,7.44 .76,5.29 4.647,6.24 8.88,7.92 1.716.681 3.431,1.562 5.28,1.68 .756.284.68,1.4 1.68,1.439 7.672,1.386 15.9.697 23.04-.72 1.083-.043.593,1.487 1.92,1.2 6.182-1.978 13.669-2.651 18.24-6.24 1.123-.242.797.963 1.92.721 2.675-4.046 7.123-6.317 10.08-10.08 4.159-1.691 6.667-5.858 10.56-8.4 2.161-1.411 4.995-2.237 7.92-3.36 2.712-1.041 5.356-2.429 7.92-3.359 2.117-.769 4.888-1.978 6.96-2.4 2.239-.457 4.377.167 6.48-.72 .669.21 1.186.574 1.92.72 12.216.801 25.026,2.976 38.16,2.16 3.665-.228 7.197-1.216 10.801-1.44 5.536-.344 12.76.117 17.52.24-.135-1.265-1.601-.982-2.4-1.2-4.095-1.112-7.543-1.808-11.76-2.64-1.491-.295-3.057-.999-4.56-1.2-10.632-1.423-21.936-4.12-34.08-2.64 .18-.78 1.866-.054 1.68-1.2-7.826-.209-15.991-.942-23.76-.24-2.599.235-5.861.827-8.88.96-1.424.062-2.683-.125-3.84,0-4.719.513-6.237,3.559-8.64,6 1.19-2.169 3.103-3.617 4.56-5.52-6.263-.438-10.609,1.648-16.32,2.399-6.052.797-11.021,1.93-15.6,3.601-1.997.729-4.289,1.209-5.52,1.92-4.481,2.587-4.85,8.925-8.4,11.76 2.056-3.304 3.894-6.826 5.76-10.32-4.983,1.341-9.381,3.915-13.92,6-4.591,2.11-9.057,4.503-13.92,5.761 6.389-2.948 13.129-6.189 19.2-9.12 2.155-1.041 4.666-1.525 6.24-3.36-2.988-.372-6.597-.123-8.88-1.2 4.2.276 8.038,1.48 12.24.48 2.357-.561 4.829-2.037 7.2-2.88 6.363-2.264 13.771-3.716 20.88-4.8 1.314-.201 3.001.001 4.08-1.2-2.801-.77-6.463-1.088-9.6-1.681-2.297-.434-4.474-1.134-6.72-1.439-.789-.107-2.049.498-2.64-.48 5.072.009 9.594,1.932 14.879,2.639zm108.24,9.84c4.987.212 8.661,1.738 13.68,1.92-2.104-2.111-5.04-3.315-7.44-5.04-2.455-1.765-4.556-4.019-6.239-6.479h-.721c1.06,2.612 1.686,6.295.72,9.599zm-82.32.72c-4.283,1.431-7.953,3.351-11.76,4.8-2.788,1.062-5.343,1.651-7.68,3.12-2.413,1.518-4.61,2.973-6,5.04 5.91-2.709 12.401-5.159 18.48-7.68 2.12-.879 4.492-1.655 6.72-2.16 3.439-.779 6.937-1.649 10.32-2.4 .964-.213 2.438-.247 3.12-1.199-4.297-1.243-9.625-.715-13.2.479z" fill-rule="evenodd"/>
 <path d="m124.32,117.12c-.571-.549-.695-1.544-.72-2.64-.355-.525-.468-1.292-.96-1.68-.085-1.115-.308-2.092-.72-2.88-.067-.429.227-.492.24-.24 .73,2.47 1.857,4.543 2.16,7.44z" fill-rule="evenodd"/>
 <path d="m183.84,121.44c-1.087,2.034-4.269,4.05-5.76,6.48 .523-2.599 3.912-4.407 5.76-6.48z" fill-rule="evenodd"/>
 <path d="m126.72,127.44c1.11.481.739,2.218.96,3.36 .236,1.223.676,2.435.96,3.36v1.44c.683,2.197 1.334,4.425 1.44,7.2-1.232-5.008-2.37-10.11-3.36-15.36z" fill-rule="evenodd"/>
 <path d="m135.12,172.08c.769.831.152,3.047.72,4.08-.718.071-.656-2.699-.72-4.08z" fill-rule="evenodd"/>
 <path d="m248.88,209.28c1.531.072 4.134,1.145 5.04,2.64 1.882.839 3.576,1.864 4.8,3.36-3.243-2.037-6.116-4.444-9.84-6z" fill-rule="evenodd"/>
 <path d="m208.08,221.28c-.138,1.251-3.384,2.072-5.521,3.12-1.799.883-3.331,2.229-5.04,2.64 2.927-2.514 7.287-3.594 10.561-5.76z" fill-rule="evenodd"/>
 <path d="m197.28,227.04c-6.666,4.214-13.467,8.293-19.2,13.44 .653-1.459 2.238-2.273 3.6-3.36 1.287-1.027 2.462-2.442 3.84-3.36 .654-.435 1.542-.542 2.16-.96 2.617-1.766 6.101-4.546 9.6-5.76z" fill-rule="evenodd"/>
 <path d="m221.76,301.92c.116,2.012-.804,4.127-1.439,6-1.903,5.608-4.547,11.282-7.2,16.32 .031-1.598 1.231-2.833 1.92-4.32 2.505-5.41 4.73-11.827 6.719-18z" fill-rule="evenodd"/>
 <path d="m166.32,308.16c-.104,2.378-.852,6.188-1.44,8.88 .139-3.302.828-6.052 1.44-8.88z" fill-rule="evenodd"/>
 <path d="m209.52,331.2c.021-1.503 1.767-3.352 2.4-5.04 .399.852-1.865,3.52-2.4,5.04z" fill-rule="evenodd"/>
 <path d="m208.56,331.92c-.11,2.002-1.615,3.588-2.64,5.28-1.033,1.707-1.95,3.602-3.12,5.28-1.128,1.618-2.535,3.127-3.6,4.8-1.104,1.731-1.842,3.674-3.36,5.04 3.702-7.338 9.274-12.805 12.72-20.4z" fill-rule="evenodd"/>
 <path d="m194.64,353.76c-.683,2.918-3.81,5.47-5.04,8.641-.408-.089-.452.187-.479.479 .233-2.108 2.348-3.749 3.6-5.76 .27-.433.217-1.035.48-1.44 .155-.238.789-.448.96-.72 .293-.469.009-.95.479-1.2z" fill-rule="evenodd"/>
 <path d="m280.8,394.8c-4.696.324-10.822,1.134-15.6,2.16 2.496-1.426 7.648-1.55 12.24-2.16 1.109-.148 2.6-1.167 3.36,0z" fill-rule="evenodd"/>
 <path d="m246.72,404.88c1.127-.4 2.876.64 4.561.48 1.577.891-3.479-.119-4.561-.48z" fill-rule="evenodd"/>
 <path d="m127.2 461.04c-1.557 1.644-4.729 1.671-6.72 2.88 1.045-1.196 4.348-2.211 6.72-2.88z" fill-rule="evenodd"/>
 <path d="m31.68,466.32c-1.166.434-5.03.956-6.96,1.68 .407-.473 1.116-.644 1.92-.72 1.26-.74 3.135-.865 5.04-.96z" fill-rule="evenodd"/>
 <path d="m50.64,478.8c.474,1.042-1.229,1.967-1.2,3.36-.679-.03-.854,1.184-1.44,1.68-.461.391-1.638,1.141-1.68.48 2.168-1.112 3.102-3.458 4.32-5.52z" fill-rule="evenodd"/>
</svg>
