<?xml version="1.0" encoding="UTF-8"?>
<svg enable-background="new 0 0 246.18 337.177" viewBox="0 0 246.18 337.177" xmlns="http://www.w3.org/2000/svg">
 <path d="m153.08.638c.819-1.636 2.375.448 3.787,0 1.523,3.346 6.073,3.666 7.034,7.574-4.057-2.076-6.219-6.045-10.821-7.574z" fill-rule="evenodd"/>
 <path d="m124.4 12.541h-3.788c0.445-0.569 3.914-2.278 3.788 0z" fill-rule="evenodd"/>
 <path d="m115.208,13.082c-.236.666-.692,1.111-1.623,1.082-.253-1.155.772-1.031 1.623-1.082z" fill-rule="evenodd"/>
 <path d="m126.57 14.705h1.082v1.082h-1.082v-1.082z" fill-rule="evenodd"/>
 <path d="m167.688,16.328c-.8,1.365-2.093,2.236-3.787,2.705 .817-1.346 1.854-2.474 3.787-2.705z" fill-rule="evenodd"/>
 <path d="m122.24 19.033c1.64-2 1.822 1.643 0 0z" fill-rule="evenodd"/>
 <path d="m154.703,19.033c1.347.082.158,1.832 0,2.164-1.62-.356.517-1.156 0-2.164z" fill-rule="evenodd"/>
 <path d="m120.62 19.574h1.083v1.082h-1.083v-1.082z" fill-rule="evenodd"/>
 <path d="m117.913,21.197c1.086-.184 1.693.111 1.623,1.082h-1.623v-1.082z" fill-rule="evenodd"/>
 <path d="m115.749,22.82c1.086-.184 1.693.111 1.623,1.082h-1.623v-1.082z" fill-rule="evenodd"/>
 <path d="m154.703,24.443c1.237.925-.882,3.049-.541,4.87-1.99-.465.037-3.603.541-4.87z" fill-rule="evenodd"/>
 <path d="m155.244,28.771c2.111-.379.027,1.896 0,2.705-1.585-.458.324-1.741 0-2.705z" fill-rule="evenodd"/>
 <path d="m159.032,29.854c-.008,1.075-1.477.688-1.082,2.164-1.317-.34-.287-2.734 1.082-2.164z" fill-rule="evenodd"/>
 <path d="m69.761,32.018c.544-1.361 2.393.431 2.164,1.623-1.103-.16-1.061-1.464-2.164-1.623z" fill-rule="evenodd"/>
 <path d="m193.117,32.018c.665.236 1.111.692 1.082,1.623-.666-.237-1.112-.693-1.082-1.623z" fill-rule="evenodd"/>
 <path d="m124.405,32.559c-.282.8-.801,1.364-1.082,2.164-1.147-.171-.117-2.565 1.082-2.164z" fill-rule="evenodd"/>
 <path d="m75.171,35.264c-.458,1.586-1.742-.323-2.705,0 .696-2.168 1.118.149 2.705,0z" fill-rule="evenodd"/>
 <path d="m63.81 42.838c2.193-1.546 3.519 1.768 0 0z" fill-rule="evenodd"/>
 <path d="m212.593,43.379c-.176,1.267-2.359.525-2.705,1.623-1.723-1.071 1.091-2.104 2.705-1.623z" fill-rule="evenodd"/>
 <path d="m61.645,45.543c-1.188,1.653-3.465-.624 0,0z" fill-rule="evenodd"/>
 <path d="m172.016,48.79c2.274.31-.623,3.792-2.164,3.787-.149-2.133 2.314-1.655 2.164-3.787z" fill-rule="evenodd"/>
 <path d="m176.88 49.331c-1.528 1.718-2.828 3.665-4.869 4.869 1.232-2.015 2.09-4.403 4.869-4.869z" fill-rule="evenodd"/>
 <path d="m85.451,52.036c1.564.239 2.466,1.141 2.705,2.705-.854-.949-2.485-1.123-2.705-2.705z" fill-rule="evenodd"/>
 <path d="m168.77,53.118c1.361.544-.431,2.393-1.623,2.164 .159-1.103 1.464-1.061 1.623-2.164z" fill-rule="evenodd"/>
 <path d="m210.43 54.741c-2.217 2.292-6.138 2.88-8.656 4.87-0.439-2.027 5.615-3.932 8.656-4.87z" fill-rule="evenodd"/>
 <path d="m170.393,55.282c.963.397.078.984 0,1.624-.964-.398-.078-.985 0-1.624z" fill-rule="evenodd"/>
 <path d="m166.61 55.823c1.366 1.054-1.38 2.552-1.623 3.788-1.366-1.055 1.38-2.552 1.623-3.788z" fill-rule="evenodd"/>
 <path d="m212.05 57.446c-3.222 2.188-7.053 3.768-10.82 5.41 2.508-2.902 6.772-4.047 10.82-5.41z" fill-rule="evenodd"/>
 <path d="m168.229,57.987c1.658.531-.622,1.443-.541,2.164-1.659-.531.622-1.443.541-2.164z" fill-rule="evenodd"/>
 <path d="m214.216,59.61c1.125.303 1.146.844.541,1.623-11.66,4.57-21.774,10.687-31.38,17.313 .29-3.088 4.077-3.346 6.493-4.869 7.152-4.509 16.147-10.296 24.346-14.067z" fill-rule="evenodd"/>
 <path d="m163.36,60.151c-.252,3.362-3.849,8.049-6.493,10.821 1.901-3.87 4.334-7.209 6.493-10.821z" fill-rule="evenodd"/>
 <path d="m221.25,64.479c-.459,2.066-2.446,2.604-4.328,3.246-.056-2.58 2.641-2.408 4.328-3.246z" fill-rule="evenodd"/>
 <path d="m195.82 65.562c-4.166 2.867-8.248 5.819-12.985 8.116 3.754-3.28 7.692-6.376 12.985-8.116z" fill-rule="evenodd"/>
 <path d="m223.96 66.103c-0.795 2.075-4.163 3.907-5.951 3.246 2.042-1.023 3.313-2.818 5.951-3.246z" fill-rule="evenodd"/>
 <path d="m219.63 71.513c1.431-1.438 4.416-3.654 5.951-3.247-0.429 2.441-4.498 3.571-5.951 3.247z" fill-rule="evenodd"/>
 <path d="m227.202,70.431c-1.23.934-2.09,2.238-4.328,2.164 .78-1.306 2.648-3.449 4.328-2.164z" fill-rule="evenodd"/>
 <path d="m229.366,70.972c.229,1.851-1.62,1.625-2.164,2.705-2.127-.548.203-2.994 2.164-2.705z" fill-rule="evenodd"/>
 <path d="m174.72 85.039c7.319-4.583 14.175-9.631 22.724-12.984-7.322 4.58-14.556 9.249-22.724 12.984z" fill-rule="evenodd"/>
 <path d="m68.679,78.546c1.243,1.463 3.804,1.606 4.328,3.787-2.256-.016-2.669-1.872-4.869-.541-.013-1.274.932-1.592.541-3.246z" fill-rule="evenodd"/>
 <path d="m234.235,78.546c.423,1.646-3.463,2.766 0,2.705-.893,2.895-2.946,4.628-5.951,5.411-1.137-2.049 3.761-1.949.541-2.706 1.131-2.476 2.933-4.279 5.41-5.41z" fill-rule="evenodd"/>
 <path d="m159.573,79.087c1.023.711-.683,3.249-2.165,3.246 .355-1.448 1.55-2.057 2.165-3.246z" fill-rule="evenodd"/>
 <path d="m74.089,81.251c6.421,2.008 1.649,9.623-1.623,11.362-2.42-2.497-2.193,1.914-5.41,1.623 2.634-3.888 7.739-7.478 7.033-12.985zm.541,7.575c-.385-1.35 2.381-2.223.541-3.246-.124.84-2.08,2.524-.541,3.246z" fill-rule="evenodd"/>
 <path d="m207.18 82.875c-2.206 2.303-6.421 2.596-9.738 3.788 2.322-2.188 6.035-2.983 9.738-3.788z" fill-rule="evenodd"/>
 <path d="m102.764,85.039c1.18-.098 1.721.443 1.623,1.624-.505-.579-1.996-.169-1.623-1.624z" fill-rule="evenodd"/>
 <path d="m206.1 86.121c-1.446 1.439-3.77 2.001-6.492 2.164 1.443-1.442 4.065-1.705 6.492-2.164z" fill-rule="evenodd"/>
 <path d="m160.66 88.285c-4.344 1.608-9.197 2.706-14.067 3.787 3.986-1.966 8.651-3.251 14.067-3.787z" fill-rule="evenodd"/>
 <path d="m207.72 88.285c-4.846 2.729-11.728 3.421-18.395 4.328 5.498-2.076 12.187-2.962 18.395-4.328z" fill-rule="evenodd"/>
 <path d="m196.904,88.826c-.236.666-.692,1.111-1.623,1.082 .236-.665.692-1.111 1.623-1.082z" fill-rule="evenodd"/>
 <path d="m226.12,99.105c1.087-2.52 4.115-3.099 5.41-5.41-.577-1.229-1.641,1.554-3.246,1.082 1.198-2.409 3.002-4.212 5.41-5.41-.48,1.578-.69,1.867.541,2.705-2.012,3.038-3.94,6.16-8.115,7.033z" fill-rule="evenodd"/>
 <path d="m171.475,92.613c-.13.952-.931,1.233-2.164,1.082 .13-.951.931-1.233 2.164-1.082z" fill-rule="evenodd"/>
 <path d="m155.244,95.859v2.164c-1.303.222-1.176-.988-2.705-.541 .375-1.068 1.443-1.442 2.705-1.623z" fill-rule="evenodd"/>
 <path d="m134.68 96.941c1.385 1.246-2.209 2.089-2.705 3.247-1.643-1.504 2.269-2.028 2.705-3.247z" fill-rule="evenodd"/>
 <path d="m203.937,98.023c-4.442.247-8.204,1.174-12.984,1.082 .735-1.609 3.738-.95 5.951-1.082 1.915.074 6.083-2.631 7.033,0z" fill-rule="evenodd"/>
 <path d="m235.32 100.73c2.372 1.024-2.319 5.432-3.787 4.328 1.029-1.675 3.11-2.3 3.787-4.328z" fill-rule="evenodd"/>
 <path d="m61.104,101.811c1.502.282-.2,6.129-1.082,7.574-1.032-1.775 1.664-4.452 1.082-7.574z" fill-rule="evenodd"/>
 <path d="m208.26 101.27c-2.495 1.833-7.111 1.545-11.361 1.623 2.892-1.435 7.291-1.366 11.361-1.623z" fill-rule="evenodd"/>
 <path d="m55.694,103.434c1.439,1.828-.937,4.453-.541,7.033-1.655-2.043.7-4.689.541-7.033z" fill-rule="evenodd"/>
 <path d="m210.429,103.434c-2.756,1.399-6.961,1.991-9.738,2.164-1.067.066-9.397.783-4.869-.541 3.141-.918 10.502-1.104 14.607-1.623z" fill-rule="evenodd"/>
 <path d="m102.764,111.549c1.426-.163 1.776.75 1.623,2.164-.412-.85-1.717-.808-1.623-2.164z" fill-rule="evenodd"/>
 <path d="m155.785,111.549c-.235.666-.691,1.111-1.623,1.082-.252-1.154.773-1.03 1.623-1.082z" fill-rule="evenodd"/>
 <path d="m156.867,111.549c1.086-.184 1.693.111 1.624,1.082h-1.624v-1.082z" fill-rule="evenodd"/>
 <path d="m163.36,112.631c-.095-.882 3.539-1.092 2.705.541-1.304.222-1.176-.987-2.705-.541z" fill-rule="evenodd"/>
 <path d="m47.038,113.172h1.082v1.623h-1.623c-.153-.873.511-.931.541-1.623z" fill-rule="evenodd"/>
 <path d="m241.809,113.713c.395,1.477-1.074,1.089-1.082,2.165-1.315-.34-.286-2.734 1.082-2.165z" fill-rule="evenodd"/>
 <path d="m38.381,115.337c.661-1.638 2.065.382 2.705.541-.661,1.638-2.065-.382-2.705-.541z" fill-rule="evenodd"/>
 <path d="m203.4 120.21c2.194-1.547 3.52 1.768 0 0z" fill-rule="evenodd"/>
 <path d="m36.758,122.911c-.152-.86 2.922-.758 1.623.541 .208-.208-1.63-.578-1.623-.541z" fill-rule="evenodd"/>
 <path d="m37.299 123.99h1.082v1.082h-1.082v-1.082z" fill-rule="evenodd"/>
 <path d="m34.594,129.945c1.131-.229 1.433.371 2.164.541 .172.955-3.031.965-2.164-.541z" fill-rule="evenodd"/>
 <path d="m34.053 132.65c1.64-2.001 1.822 1.643 0 0z" fill-rule="evenodd"/>
 <path d="m108.174,138.06c-.095-.882 3.539-1.092 2.705.541-1.254.173-2.077-.087-2.705-.541z" fill-rule="evenodd"/>
 <path d="m143.341,139.683c1.181-.098 1.722.443 1.623,1.623-1.179.098-1.72-.443-1.623-1.623z" fill-rule="evenodd"/>
 <path d="m103.305,145.094c1.173-.091.245,1.919.541,2.705-.435-.287-.878-.564-1.623-.541v-1.623c.629.088.963-.12 1.082-.541z" fill-rule="evenodd"/>
 <path d="m142.8,148.881c-.505-.578-1.996-.168-1.623-1.623 .505.577 1.996.168 1.623,1.623z" fill-rule="evenodd"/>
 <path d="m102.223,151.045c1.242-1.634 1.928,3.978 1.623,1.623 .131,1.013 1.957,3.531-1.082,3.787 .423-2.407-.721-3.247-.541-5.41z" fill-rule="evenodd"/>
 <path d="m104.928,167.276c.352-1.525.628,1.246.542,1.623-.252,1.087-1.017.436-.542-1.623z" fill-rule="evenodd"/>
 <path d="m44.873,177.555c3.344-.63 6.947,3.146 9.739,4.87-2.857.143-6.168-3.925-9.739-4.87z" fill-rule="evenodd"/>
 <path d="m40.545,177.555c4.156.533 7.304,2.074 9.198,4.87-2.265-.645-4.262-2.935-6.493-3.788-.983-.376-2.832,1.034-2.705-1.082z" fill-rule="evenodd"/>
 <path d="m78.958 179.72c1.441 1.444 1.705 4.066 2.164 6.493-1.357-1.528-1.62-4.15-2.164-6.493z" fill-rule="evenodd"/>
 <path d="m111.961,196.492c-.039,2.667.458,5.869-2.164,5.951-1.26-1.53 1.505-2.501 1.082-4.869-5.069-2.145-7.421-7.007-12.985-8.656-1.623-4.148-4.646-6.896-9.198-8.116 3.617-2.115 9.526,3.796 11.362,7.034 2.095-.292 2.228,1.379 3.787,1.623 .518,1.105 1.105,2.141 1.624,3.246 2.592.835 4.724,2.128 6.492,3.787z" fill-rule="evenodd"/>
 <path d="m74.089,180.26c1.069.375 1.442,1.443 1.623,2.706-.948-.495-1.879-1.006-1.623-2.706z" fill-rule="evenodd"/>
 <path d="m22.691,188.376c1.327.476 3.12.486 3.246,2.164-1.76-.043-2.915-.692-3.246-2.164z" fill-rule="evenodd"/>
 <path d="m11.329,188.917c.874-.152.932.511 1.623.541 .222,1.304-.988,1.176-.541,2.705-2.046.464-1.914-2.421-1.082-3.246z" fill-rule="evenodd"/>
 <path d="m84.369 188.92c1.355 1.35 1.64 3.771 1.623 6.492-1.089-1.616-1.131-4.279-1.623-6.492z" fill-rule="evenodd"/>
 <path d="m19.445,189.458c2.274.611 3.21,2.561 5.41,3.246-1.733.99-4.724-1.391-5.41-3.246z" fill-rule="evenodd"/>
 <path d="m15.116,191.623c2.128.757 4.053,1.718 5.952,2.705-1.701.957-5.118-.997-5.952-2.705z" fill-rule="evenodd"/>
 <path d="m10.788,192.705c.526.015.42.662.541,1.082-1.744,2.403-1.621,6.675-3.787,8.656-.676-5.004 1.721-6.936 3.246-9.738z" fill-rule="evenodd"/>
 <path d="m78.958 195.95c2.4 1.747 2.706 5.59 3.246 9.197-1.47-2.677-2.23-6.065-3.246-9.197z" fill-rule="evenodd"/>
 <path d="m12.411,197.033c2.852.395 4.654,1.838 7.034,2.705-2.113,1.012-5.896-.945-7.034-2.705z" fill-rule="evenodd"/>
 <path d="m85.992,199.197c.938.865 1.172,2.436 1.082,4.328-.803-1-1.036-2.57-1.082-4.328z" fill-rule="evenodd"/>
 <path d="m14.575,201.361c-.016,2.257-2.105,2.436-3.787,1.623-.452-2.264 2.48-2.772 3.787-1.623z" fill-rule="evenodd"/>
 <path d="m82.205 205.69c1.599 2.91 2.386 6.631 2.705 10.821-1.318-3.191-2.357-6.66-2.705-10.821z" fill-rule="evenodd"/>
 <path d="m94.107,206.771c-.17,2.67-2.448.394 0,0z" fill-rule="evenodd"/>
 <path d="m87.074 207.85c2 1.641-1.643 1.823 0 0z" fill-rule="evenodd"/>
 <path d="m95.73,208.394c2.197-.119-.39,2.812-.541,3.788-1.889-1.238 1.278-1.917.541-3.788z" fill-rule="evenodd"/>
 <path d="m8.083,210.018c.922-1.062 5.188-.892 4.869,1.082-2.016.032-3.422-.546-4.869-1.082z" fill-rule="evenodd"/>
 <path d="m129.274,209.477c1.437.186 1.826,1.42 2.164,2.705-.748-.875-2.573-.673-2.164-2.705z" fill-rule="evenodd"/>
 <path d="m7.542,211.641c1.921.062 4.358-.392 4.328,1.623-1.677-.306-4.115.147-4.328-1.623z" fill-rule="evenodd"/>
 <path d="m98.436,217.051c1.659.531-.622,1.443-.541,2.164-1.659-.531.621-1.443.541-2.164z" fill-rule="evenodd"/>
 <path d="m50.825,218.133c4.611.082 9.233,4.83 14.067,6.492-4.808.115-9.352-4.711-14.067-6.492z" fill-rule="evenodd"/>
 <path d="m104.928,225.708c-.236.666-.692,1.111-1.623,1.082 .236-.666.692-1.112 1.623-1.082z" fill-rule="evenodd"/>
 <path d="m107.092,227.331c1.581.604-.688,1.759-1.623,1.623-.166-1.247 1.563-.601 1.623-1.623z" fill-rule="evenodd"/>
 <path d="m9.165,237.069c1.086-.184 1.693.111 1.623,1.082h-1.623v-1.082z" fill-rule="evenodd"/>
 <path d="m9.165,240.316c.556,1.817-1.683.842-2.705,1.082 .08-1.184 1.363-1.162 2.705-1.082z" fill-rule="evenodd"/>
 <path d="m8.624,242.48c-.374,1.068-1.443,1.442-2.705,1.623-.199-1.642 1.762-1.123 2.705-1.623z" fill-rule="evenodd"/>
 <path d="m80.041,244.644c1.738-1.52 2.512.87 3.787.541-1.45,1.641-.924,3.12 0,4.869-1.382.061-1.894.991-2.705,1.623-.777-.989 1.612-3.414 1.623-5.41-.662-.781-2.065-.821-2.705-1.623z" fill-rule="evenodd"/>
 <path d="m78.417,244.644c.438.103.539.542 1.082.541-.29,1.274-2.559.33-1.082-.541z" fill-rule="evenodd"/>
 <path d="m76.794,247.89c-.375,1.695-1.443.705-2.706.541 .056-1.377 2.017-1.278 2.706-.541z" fill-rule="evenodd"/>
 <path d="m76.794,252.218c-.13.952-.931,1.233-2.165,1.082-.544-1.627 1.206-.959 2.165-1.082z" fill-rule="evenodd"/>
 <path d="m77.335,253.3c-.215-1.05 2.464-.79 1.623.541h-1.082c.1-.46-.21-.51-.541-.541z" fill-rule="evenodd"/>
 <path d="m47.038,254.923c-.458.804-1.742.783-2.706,1.082 .08-1.182 1.363-1.161 2.706-1.082z" fill-rule="evenodd"/>
 <path d="m70.302,261.957c2.107.433-.329,3.201-1.082,4.328-.984,1.475-2.772,3.251-3.787,3.788 1.088-3.24 3.758-4.899 4.869-8.116z" fill-rule="evenodd"/>
 <path d="m73.548,264.662c1.346.082.158,1.832 0,2.164-1.346-.081-.158-1.832 0-2.164z" fill-rule="evenodd"/>
 <path d="m92.484,265.744c.623-1.75.612,1.453.541,2.164-.623,1.751-.612-1.452-.541-2.164z" fill-rule="evenodd"/>
 <path d="m89.779,269.532c.206-1.03.688.345.541,1.082-.206,1.029-.688-.346-.541-1.082z" fill-rule="evenodd"/>
 <path d="m85.992,269.532c1.811.488.473,1.21 0,2.164-1.62-.357.517-1.157 0-2.164z" fill-rule="evenodd"/>
 <path d="m2.672,270.614h1.624c.298,2.406 2.333,3.076 2.164,5.951 5.761,6.683 10.242,14.646 20.018,17.312 3.11,4.923 6.838,9.91 10.821,14.608 1.048,1.236 3.264,2.48 2.705,4.328-5.784-1.972-6.4-9.109-11.903-11.361-.109-2.596-1.342-4.068-2.164-5.952-11.76-4.29-18.598-13.502-23.265-24.886z" fill-rule="evenodd"/>
 <path d="m89.238,272.778c.837-1.654.477,2.347.541,3.246-.837,1.653-.476-2.347-.541-3.246z" fill-rule="evenodd"/>
 <path d="m12.952,274.401c-.162,1.461-2.276.97-2.705,2.164-1.305-.821 1.213-2.352 2.705-2.164z" fill-rule="evenodd"/>
 <path d="m78.417 277.11c1.578-0.796 1.578 2.418 0 1.623v-1.623z" fill-rule="evenodd"/>
 <path d="m88.697 277.11c2.002 2.649-1.667 3.241 0 0z" fill-rule="evenodd"/>
 <path d="m12.952,278.188c-.427,1.066-1.892,1.945-2.705,1.082 .08-1.183 1.363-1.162 2.705-1.082z" fill-rule="evenodd"/>
 <path d="m18.904,281.434c.163,1.426-.75,1.775-2.165,1.623 .471-.792.81-1.715 2.165-1.623z" fill-rule="evenodd"/>
 <path d="m22.691 284.68c-1.183 1.703-2.789 2.982-4.869 3.787 1.464-1.421 2.092-3.678 4.869-3.787z" fill-rule="evenodd"/>
 <path d="m32.43,290.09c-.066,1.377-.788,2.099-2.165,2.164 .067-1.376.788-2.097 2.165-2.164z" fill-rule="evenodd"/>
 <path d="m77.335 299.29h1.623c-0.257 4.251-2.403 6.613-3.247 10.279-2.68-2.661 2.046-6.366 1.624-10.279z" fill-rule="evenodd"/>
 <path d="m113.584,306.863c.952.13 1.233.931 1.082,2.164-1.684.253-1.934-1.36-1.082-2.164z" fill-rule="evenodd"/>
 <path d="m45.955,309.027c-.236.666-.692,1.111-1.623,1.082 .236-.666.692-1.111 1.623-1.082z" fill-rule="evenodd"/>
 <path d="m51.366,313.896c-.178,1.265-.65,2.235-1.082,3.246-1.701-.093-.738-3.478 1.082-3.246z" fill-rule="evenodd"/>
 <path d="m111.961,314.437c.854,1.129 1.122,2.846 1.082,4.869-1.793-.189-.849-3.118-1.082-4.869z" fill-rule="evenodd"/>
 <path d="m114.667,314.437c2.134-.33.637,2.971 1.082,4.328-1.683-.12-.915-2.692-1.082-4.328z" fill-rule="evenodd"/>
 <path d="m73.007,315.519c.874-.152.932.512 1.623.541-.639.804-.468,2.417-2.164,2.164-.447-1.529.763-1.401.541-2.705z" fill-rule="evenodd"/>
 <path d="m93.566 322.55h1.082v1.082h-1.082v-1.082z" fill-rule="evenodd"/>
 <path d="m89.238 324.18c1.578-0.795 1.578 2.419 0 1.623v-1.623z" fill-rule="evenodd"/>
 <path d="m110.338,129.404c2.913.199 8.748-1.345 10.279-4.329 .081-1.663-1.903-2.433-.541-3.787 2.742,1.442 2.944,5.678 2.165,9.198 1.708,1.358 4.133,1.999 6.492,2.705 2.061-.16 4.257-3.135 7.575-3.787 1.972-.388 4.874.311 7.574,0 5.136-.592 8.92-1.545 11.361,3.246 .464,1.726-.852,1.673-1.082,2.705 6.402,6.222 12.732,12.516 20.56,17.313-.476,4.342 5.729,7.295 10.82,10.821 6.271,4.341 12.073,8.188 18.937,12.443 5.416,3.357 10.462,5.578 14.608,10.28 2.495,2.83 6.642,9.582 4.869,14.607-.929,2.632-4.354,3.063-5.41,6.492 .186,4.656-1.837,10.917-8.657,10.28-1.57.773-1.342,3.347-2.705,4.328-1.692.11-3.972-.365-4.869.541 .676,3.014-1.654,6.747-4.328,8.115-30.89,1.134-36.362-23.151-44.906-44.364-.962-.481-1.375-1.511-3.246-1.082-3.83-7.893-11.533-11.911-15.689-19.478-1.647-.153-2.104,1.733-3.247.541-.404-1.667 1.866-.66 1.083-2.705-3.813-4.718-11.421-7.088-11.362-14.608 .024-3.077 2.271-4.944 2.706-8.657-.87-1.835-3.776-1.635-6.493-1.623-1.548,1.878-2.935,3.919-6.492,3.787-1.496,15.479 1.023,31.368 1.623,46.529 6.73,1.53 9.404,4.672 14.067,9.738 6.398,6.951 14.022,17.233 12.444,32.462-.23,2.224-1.209,3.639-.541,6.492 .645,2.752 3.407,5.405 4.869,8.657 1.336,2.972 2.717,6.59 2.705,10.82-.006,2.233-1.16,5.131-1.623,8.656-1.099,8.375-.414,21.808-7.574,23.265-7.221,1.47-9.751-5.991-14.608-8.115 5.585,9.305 9.426,25.87 1.623,35.708-.449,6.511 1.173,11.765-.541,16.772-4.189-.5-.85-8.528-2.706-11.362-2.459,1.838-.439,7.325-.541,10.28-2.469.665.051-3.657-1.623-3.787-1.555,2.412 1.111,9.046-3.246,8.656 .109-4.438.054-8.711-1.623-11.362-.961.662-.111,3.136-2.705,2.165 .064,3.957 1.111,5.195 0,9.197-3.942-.747-1.906-7.473-2.705-11.362-1.278-1.246-5.346.296-5.952-1.623-7.59,5.066-19.276,8.085-30.839,5.411-3.85-.891-7.584-4.305-11.903-5.411-2.056-.526-4.066.085-5.951-.541-2.975-.986-5.864-4.388-9.198-5.41 .365-2.709-1.444-3.244-2.705-4.328 1.75-1.715 2.876,1.786 4.869,1.623 1.782-3.268 3.459-6.64 4.87-10.279 1.597.643-.298,3.625-1.082,5.41-.913,2.079-1.973,4.447-3.246,5.41 2.432,4.421 7.133,6.573 12.984,7.574 .096-2.079-1.869-2.098-2.164-3.787 .65-19.474 7.728-32.572 16.231-44.905 3.455-5.011 6.454-7.604 5.952-16.231-5.906,1.706-10.513-4.264-12.985.541 .263-3.179-3.209.477-4.87,1.623-.737-1.48 3.3-2.815 4.329-4.328-5.607,1.065-8.957,4.389-14.067,5.951 3.367-4.748 10.8-5.431 15.149-9.197-11.312,1.854-23.353,7.666-35.708,10.279 1.71-2.258 6.369-1.566 8.657-3.246 1.909-.159-1.909-1.464 0-1.623 6.293-1.642 12.495-3.376 18.395-5.41-3.114-1.119-6.875,1.772-10.82,1.623 4.907-2.925 12.134-2.339 17.313-4.869 .616-.302 1.965-2.945 3.787-2.705-22.938,2.028-51.677-3.378-66.006,8.656-3.054,4.417.037,8.365.542,13.526-2.899-2.362-4.339-9.374-2.165-13.526-3.484-11.979 2.605-22.729 7.575-29.757-1.85-3.832-4.985-9.822-4.328-15.689 .324-2.895 1.643-6.059 3.787-7.575-.978,4.575-2.944,6.191-2.164,12.444 .895,7.177 8.477,11.358.541,15.689-2.097,6.3-8.332,15.552-3.788,23.265 6.421-5.279 13.512-6.605 22.724-7.033 7.326-.341 16.081.852 23.806-.541 .285-.052 1.169-.343 1.623-.541 7.327-3.212 15.084-7.782 23.264-8.116-9.222-2.177-18.042.638-25.428,3.247 1.454-1.974 4.283-2.57 7.033-3.247-1.344-1.655-3.284.648-5.41,0 2.001-1.785 5.642-1.932 9.197-2.164-3.871-1.517-9.231.14-12.984.541 1.381-1.636 4.674-1.943 7.574-2.164 2.296-.175 5.065.131 7.574,0-5.222-2.353-13.765-1.384-21.1-1.623 4.949-2.805 13.149.079 19.477-.541-11.053-3.555-24.008-5.207-38.413-5.41 .507-3.085 3.967-.239 7.033-1.082 .215-1.297-2.464.3-1.623-1.623 1.986-.858 6.005.323 8.657.541 1.909-.159-1.909-1.464 0-1.623 13.23,1.017 23.445,5.049 34.626,8.115-7.277-4.445-14.459-8.985-23.264-11.902 7.968.69 15.558,6.442 22.182,10.279 1.267-.614-1.386-1.81-2.164-2.164 3.464-.948 5.896,1.036 9.739,3.246-1.289-2.757-3.984-3.056-5.952-4.869-4.306-3.969-9.05-10.387-13.526-16.772-4.204-5.997-8.125-13.016-12.444-17.854-4.282-4.798-12.342-11.143-18.395-11.903-3.625-.455-6.847.378-9.739,2.164-1.299,2.128-.921,5.933-4.328,5.952 1.239-7.237 8.764-12.109 17.313-8.657 8.496-3.431 17.062-7.105 27.052-3.787 3.945,1.311 5.727,4.587 12.444,3.787 3.315-.395 5.504-2.776 9.198-3.246 7.278-.926 12.073,2.295 18.395,3.787-1.067-29.405 2.319-63.537.541-91.434-.445-6.984-.765-13.855-3.787-19.478-5.129.461-8.031,3.151-11.362,5.411-.912-1.805.343-1.847.541-3.787-3.114,1.394-5.083,3.934-6.492,7.033 .511,2.735 2.437,4.056 5.41,4.328 4.651,3.591 5.58,15.634 3.246,22.724-1.187.616-2.21,1.396-4.328,1.082-7.375,11.38-14.995,22.517-21.642,34.626-6.604,2.435-20.272,9.802-25.969,1.623-3.441.375-4.681-1.451-7.034-2.164-1.997-4.395-3.637-13.783-.541-18.395-1.693-8.411-.214-20.952 10.28-20.559 .022,1.608-1.61,4.325.541,4.869 2.606-.985 2.119-3.914 3.246-5.952 2.349-4.244 6.31-7.786 8.657-11.902-.273-2.973-2.217-4.275-1.623-8.116 1.603-1.557 3.881-2.484 6.492-1.623 3.808-1.878 10.182-5.11 14.608-1.623 2.268-1.52 4.078-3.497 5.41-5.951-1.453-1.433-4.283-1.489-5.41-3.247-1.498-.486-5.079,1.112-4.869-1.082 5.507,1.365 11.461-.546 11.361-6.492-.938-.55-2.606,2.783-3.787,3.787-4.554,1.185-9.223,1.427-14.067,1.082 1.277,1.068 3.415,1.274 5.41,1.623-2.4,1.648-6.521-1.234-9.197.541-.548-2.583 1.479-6.162 1.623-9.738-7.461-1.556-11.215-6.819-17.313-9.739-.472-1.734.833-1.692 1.623-2.164-1.045-4.185-7.036-3.425-6.493-9.198 3.795-2.698 9.714-3.271 11.362-8.115 3.662-.667 6.312-2.345 11.362-1.624 3.916-3.417 4.05-7.385 5.41-12.984 3.871.668 6.744-.251 9.739.541 .6-1.023.69-2.556 1.082-3.788 2.645-.729 5.806-.008 8.657.541 1.119.986.839,2.288 1.623,3.788 .872,1.668 3.232,3.334 3.787,4.869 1.778,4.922-.02,9.815-1.623,14.608 .973,2.232 2.347,2.945 2.705,5.951 .228,1.915-.959,4.476-.541,5.952 1.114,3.934 5.068,5.762 9.198,5.41-.14-2.385-1.66-3.389-1.082-6.492 1.563-.902 1.775-3.754 4.328-2.164 .633-.81.672-2.213 1.623-2.706 .804-2.114-2.888-6.125-1.082-9.738 .044-.089 1.082-.535 1.082-.541 .52-6.234-1.285-9.511 2.705-12.444 2.873-.373 4.993-1.5 7.575-2.164-1.478,1.637.874,1.508 1.082,2.705 .674,3.877-2.767,8.027-2.705,12.444 3.127.242 2.697-3.074 5.41-3.247-.007,1.075-1.476.688-1.082,2.165 4.351.383 5.337-2.598 9.198-2.706 .312,5.182-2.55,7.189-3.788,10.821 7.813-.302 10.267-5.964 11.903-12.444-.458-1.585-1.742.324-2.705,0 .866-2.561 1.516-5.337 3.246-7.033-.697.745-2.35.535-3.787.541 .89-.914 2.936-.671 3.787-1.623 .093-2.077-2.798-1.169-2.705-3.246 2.119.586 4.703.708 5.411,2.705-1.448,7.208-2.273,15.041-7.034,18.936 .406,11.112-11.026,7.041-20.559,8.116-4.169,1.204-1.112,5.166-1.624,8.115-.521,3.006-2.515,4.088-3.787,6.493 3.993,6.106 5.547,14.651 8.116,22.182-.118,1.906-1.453,4.145.541,4.869 .28,1.192-2.726,2.985 0,3.247-1.625,7.125-.052,17.934 0,24.887 1.085-.184 1.693.111 1.623,1.082 4.214-1.557 6.757-4.785 10.821-6.492-4.592-10.549 4.406-18.152 7.033-26.511 1.03-1.014 1.359-.059 2.705,0 8.075-9.16 11.788-23.672 8.657-38.954-1.189-5.805-3.657-12.352-2.705-21.642 1.08-10.545 4.078-18.668 15.148-18.936-1.022,1.682-3.316,2.094-5.41,2.705-1.21,4.417.568,8.213 1.082,12.444 1.849-3.742.751-10.431 4.869-11.903 3.087.7 4.069,3.505 5.411,5.951-2.549-.517-1.951-4.181-4.87-4.328-.614,4.583 4.424,3.512 3.787,8.116 3.779-1.41 7.461-5.388 15.149-4.87 7.181.485 17.594,2.954 20.019,5.411 1.661,1.684 1.862,4.127 2.705,5.951 4.637,1.314 6.254,5.648 11.361,6.492 3.58,5.036 8.096,9.294 11.903,15.149 2.142,3.293 3.79,6.059 4.328,10.279 .27,2.118-.682,4.854 0,7.034 .956,3.056 4.284,3.729 7.033,6.492 4.125,4.147 7.37,10.611 10.82,14.067-.124,7.527 4.313,11.267 2.705,19.477-.591,3.021-2.562,6.311-1.082,10.28 1.297.214-.3-2.464 1.623-1.623 .854,3.75 3.081,5.928 2.706,9.198-.562,4.889-6.876,8.066-8.116,12.444-5.71,4.521-12.773,5.613-19.477,4.869-7.861-.873-17.331-4.345-25.429-7.575-7.898-3.149-16.03-8.107-23.265-9.197-14.952-2.254-33.04,7.919-44.365-2.706-9.611.311-9.954,9.887-15.15,14.611zm3.787-8.657c-.807.997-1.709,1.898-2.705,2.705-.385-2.729 1.664-3.025 1.082-5.951-2.45,1.189-1.515,1.667-3.787,0-1.506,1.74-.526,5.966-1.623,8.115-.808-.635-.638-2.248-2.165-2.164 1.487,3.632-1.387,5.192 2.165,6.493 2.277-1.691 8.201-4.405 7.033-9.198zm-61.136-31.38c5.223.348 7.113-5.503 11.903-3.787-1.833,3.476-5.589,13.481 1.082,14.608 1.022-5.47 6.738-6.247 10.28-9.198 .958.664 2.851.395 3.246,1.623-.197-4.281-1.895-14.164-5.411-15.149 2.208-3.021 3.919-6.541 7.575-8.116 .476-1.738-1.784-.741-1.623-2.164 1.661-.683 3.869-.82 4.328-2.705-10.426-1.207-10.23,12.838-21.1,12.985 .007-1.075 1.476-.688 1.082-2.164-5.29-.773-7.36,1.77-10.28,2.705-2.208.707-5.071-.647-4.869,1.623 3.438-.179 8.23-1.857 10.279-1.623-2.822,2.593-6.652,7.048-7.574,9.739 1.092-.711 1.883-1.724 3.246-2.164 .668,1.75-1.75.413-1.082,2.164 2.203.195 3.904-2.917 4.869-2.164-.988,2.258-4.29,2.202-5.951,3.787zm19.477-31.38c.508-3.087-1.854-4.206-1.623-7.034-9.332-.675-11.58,5.733-14.067,11.903 6.907.982 14.722,1.018 15.69-4.869zm66.006-38.413c-1.285,13.279 4.445,22.102 4.328,33.003-.037,3.43-2.026,6.362-.541,9.739 2.64-12.689 4.674-25.984 5.41-40.578-2.487-4.366-2.112-11.594-3.787-16.772-3.155,3.37-4.94,9.754-5.41,14.608zm28.675.541c.377-1.426 2.463-1.144 2.705-2.705-1.388.09-3.766,1.956-2.705,2.705zm15.148,45.988c1.8-2.743 1.782-6.46 3.246-9.738 .739-1.653 2.42-2.876 3.247-4.329 3.008-5.285-2.777-12.249-2.164-18.936 2.12-1.903-.498-4.59 1.623-6.493-2.561-1.098.224-1.887.541-3.787 .242-2.768-1.293-3.757-1.623-5.951-5.013-.324-6.698,2.68-10.821,3.246 2.702-2.708 7.437-3.384 11.362-4.869 6.508,3.763 2.162,10.121 1.623,16.231-.396,4.485 1.483,8.381 2.164,12.444 .302,1.805-1,3.672 1.082,4.869 1.947-2.859-.449-7.907 2.164-9.198 .578-2.021-1.344-1.542-1.082-3.246 1.18.098 1.721-.443 1.623-1.623-.087-3.306.188-6.622-.541-8.657-.681-1.899-1.062-3.747-1.623-5.41-2.442-7.23-9.982-8.683-19.478-9.738-8.016-.891-12.903,4.184-17.313,5.41-2.511-2.178-1.664-7.713-5.951-8.116-1.553,7.515-.602,17.075-1.082,23.806 .79-3.942 1.227-9.609 4.869-9.739-1.128,4.106-3.823,9.516-2.705,14.067 .633-2.252.445-5.326 2.164-6.492 .188,1.493-1.553,3.799 0,4.869 .75-.332.082-2.083 1.082-2.164 .391,3.827-2.58,7.145-1.082,10.28 1.14-2.468 1.258-5.956 2.705-8.116 .871,1.783-1.882,3.828.541,3.787 1.197-3.131 3.729-4.929 3.788-9.197 2.453-2.833 4.911-5.886 7.574-8.116 1.14-.954 3.835-1.503 3.246-3.246-2.903,1.425-4.668,3.988-7.574,5.41 .364-1.979 2.682-2.021.541-3.787 2.823-1.324 5.349-2.947 7.574-4.869-1.712-.089-1.809,1.438-3.787,1.082-.166-1.248 1.562-.601 1.623-1.623-3.22-.857-4.295,3.255-5.951,2.164 1.463-.992.094-1.832 1.082-2.705 5.355-3.421 10.427.901 15.689,2.164-6.375,1.379-10.255,5.254-14.607,8.656v2.164c-2.05,1.499-3.507,3.799-4.869,5.952-1.548,2.443-2.119,4.869-3.246,7.575-2.892,6.938-6.693,14.421-6.493,22.182 .801-5.692 4.147-8.837 4.328-15.149 3.921-4.015 4.189-11.681 9.198-14.608-10.052,16.279-14.594,38.067-22.724,56.268 3.552-.056 3.605-3.609 5.41-5.411 .121,1.023-.609,1.194-.541,2.165 2.004-.279 1.361-.922 1.082,1.082 3.956-.012 6.57-1.365 8.656-3.247-.17.732-.77,1.034-.541,2.165 8.203-1.355 11.247-7.871 17.313-11.362 .055,1.042 2.017-.84 2.705.541-.215-2.199 2.303-1.665 2.705-3.246-2.223-.569-3.347,2.743-4.328,1.623 1.443-1.814 6.126-3.237 5.41-5.411-1.07,1.829-5.394,3.245-6.492,3.247 2.64-2.978 4.867-3.046 8.658-4.87zm-115.78-51.398c1.333,4.622 11.932,2.851 15.149,3.787-3.021-3.494-9.251-6.324-15.149-3.787zm-3.787,1.082c.098-1.18-.443-1.721-1.624-1.623-.098,1.18.443,1.721 1.624,1.623zm2.164,15.69c-.99-1.703-2.458-6.247-.541-7.575 4.921.128 7.692,2.407 11.903,3.247-.911-3.959-4.439-5.3-7.034-7.575-2.665.14-5.259.209-4.869-2.705 1.243.062 2.381,2.972 3.787,1.082-1.913-.252-1.902-2.426-4.328-2.164-.853,3.678-1.371,6.667-3.247,10.279 2.342.558 2.287,6.352 4.329,5.411zm12.984,0c-3.069-2.882-8.801-3.102-12.985-4.87-.075,5.305 3.061,7.399 5.41,10.28-1.443,1.018-1.313.835 0,1.082 5.607,1.054 15.108-6.546 14.067-12.444-.31-1.756-5.401-7.273-9.739-5.951 1.215,3.283 6.124,8.072 3.247,11.903zm25.97-4.329c-1.354.449-2.125,1.482-3.787,1.623-1.436,4.562.906,8.332 3.787,11.362 6.932,2.543 11.866-1.795 18.396-.542 .046-1.396 2.316-.569 1.623-2.705-2.827.97-8.141,2.308-10.821,1.623 2.545-3.225 6.004-5.538 7.033-10.279-3.775,1.691-8.793,5.862-13.525,3.246 .988-1.762-.952-2.979-1.082-4.87-.12-1.727 1.943-5.323 0-5.951-1.198,1.36-4.403,4.535-1.624,6.493zm130.389,80.073c-1.131.523-3.02,3.07-4.328,1.623 3.421-.547 5.526-6.091 7.574-7.033 1.045-.481 1.783,3.656 1.623,0 1.39-6.066.504-12.753-.541-20.019-5.941-7.224-11.019-15.311-18.395-21.1 1.811-12.087-3.366-15.449-7.575-21.101-2.998-4.026-4.848-7.854-7.574-11.361-4.612-.077-5.356-4.021-9.197-4.87 5.502,22.879-7.146,40.031-17.313,52.48 1.605.472 2.669-2.312 3.246-1.082-3.837,2.459-8.333,4.229-11.361,8.656 1.427-.165 1.396,1.13 1.623,2.165-1.55,3.635-5.938,6.244-5.951,9.738-1.765-.141-2.604.643-2.705,2.164 8.695-1.225 16.586-6.135 24.347-6.492-5.678,2.078-12.193,3.316-17.313,5.951 12.58-1.668 26.316-5.062 37.331-6.492-14.63,4.847-33.089,5.865-48.151,10.28-.973,2.093-3.423,2.709-4.329,4.869 7.833-.463 14.29-2.302 22.724-2.164 .514-1.109 1.331-1.916 2.705-2.164 9.122.643 17.255-2.581 24.888-1.623-8.529,1.599-17.848,2.027-25.429,3.246h4.869c4.034.777 7.87-1.493 10.821,0-11.58,1.766-26.095.596-36.249,3.787 10.276,1.205 23.469-2.098 33.544-1.082-8.117,1.422-20.059.742-25.97,2.705 13.834.08 28.677-.664 40.577-1.623 2.056-.166 4.411-2.113 5.951,0-8.413,2.047-20.522.397-28.675,2.705 6.134.359 13.704-.719 18.937.541-7.937.359-17.312-.72-24.347.541 5.194.938 11.704.56 16.772,1.623-8.215.818-16.003-1.667-22.724-.541 13.863,3.638 33.565,7.582 49.234,4.329-.959-.124-2.71.545-2.164-1.083 3.653-.675 7.336-1.32 10.279-2.705 1.406-1.422-.874-.426-.541-2.164 1.86.032 4.567-1.888 3.787-2.704zm-163.933-80.073c4.319,1.403-3.61-1.627 0,0zm-24.888,16.772c-1.715-2.613-4.601-4.055-5.951-7.034 5.383-.388 10.399-1.143 14.608-2.705-2.249-2.478-3.867-5.758-8.116-5.41-1.951.16-6.847,3.738-5.951,4.869 3.895-.114 6.576-4.707 9.739-1.082-1.756.313-2.517-.369-3.788-.541-1.243,2.905-6.136,2.16-8.656,3.787-1.653.391-1.972-.553-3.246-.541 .31,5.101 6.411,4.41 7.574,8.657-.689-.11-2.65-1.573-2.705-.541 1.176,1.937 4.189,1.53 6.492.541zm13.526-9.738c1.088-2.128-.274-4.179-1.623-5.41-.304,2.547-.849,4.613 1.623,5.41zm1.082,2.164c2.019.506 2.482,2.568 4.87,2.705-.934-2.132-3.426-2.706-3.788-5.41 2.22,1.567 3.021,4.553 7.034,4.328-1.298-2.439-3.815-3.224-5.41-5.41-.714-.979-.405-2.536-2.165-2.705-1.037,1.307-.341,4.347-.541,6.492zm17.313,11.362c-.84-.783-2.525-.722-3.247-1.623 2.342.729 3.583-.259 4.329,0-.364,3.477 4.189,3.53 2.705,6.492 3.355,1.153 3.504,5.513 7.574,5.952 .64,2.797 5.813,3.912 4.87,6.492-2.575-.671-2.835-3.657-5.411-4.328 1.333,3.498-3.06,1.268-3.787,2.705 .635.808 2.248.637 2.164,2.164-1.291.874-3.92.408-4.328,2.164 1.386.587 2.579-1.644 3.246,0 .589,1.377-2.534,2.098 0,2.165 3.342-1.528 6.96-2.779 9.739-4.87 4.826,8.018 4.558,19.97 4.869,30.298 .407,13.483-.92,30.337-1.623,45.447-.215,4.632-.42,9.672 0,14.067 .074.774.919.915 1.082,1.623 .142.615-.021,2.234 0,2.706 .351,8.07-.571,15.23-.541,21.641 3.949,1.462 6.033,4.789 9.198,7.034 .848-.839-1.233-5.757 1.082-6.493-1.988-2.593-.82-6.731-1.082-10.82-.629-9.82-2.448-22.047 1.082-30.298 2.451,1.212 5.788.506 4.869-3.246-1.636-1.066-4.914-1.527-7.033-.541-.052-.85.072-1.876-1.082-1.623-1.702-.259-2.115.771-3.247,1.082-.179,2.636 2.532,5.252 0,7.033-1.935-2.984-2.338-9.2.541-11.361 1.044.218.047,2.478 2.165,1.623 1.491-3.775-3.571-1.848-3.788-5.411 1.364-3.547-.859-9.174 1.623-12.443 1.53,2.062-1.286,5.493 2.165,5.951 3.205-6.569 1.029-16.551.541-27.052-.518-11.116-.165-19.792-3.247-28.134-1.248-3.379-3.446-8.51-7.033-7.574 .697,3.769 4.856,7.438 6.492,12.444 1.511,4.624 1.722,9.952 1.082,13.525-.995-1.55-1.73-5.566-.541-7.574-2.775-3.747-3.143-9.642-6.492-14.067-2.145-2.833-5.94-4.191-7.034-7.575 1.248.557 1.745,1.862 3.788,1.624 1.652-5.943-7.839-5.836-9.198-10.821-1.076-3.948 3.343-10.018-3.246-10.821-.284,2.628 2.3,2.389 2.164,4.87-1.035.252-2.329-1.668-2.164.541-1.685,2.554 2.187.951 1.623,3.787-4.731.181-3.492-4.159-2.705-7.575-2.021-.579-1.542,1.344-3.246,1.082-.226,2.589 2.414,5.136.541,7.575-2.613-.257-5.093-2.977-7.034-2.164-.402,4.017 5.995,4.091 7.575,4.327zm-10.279-5.952c-.64-.623-1.913-.613-3.246-.541-3.708-6.286-13.469-6.197-21.101-3.247 1.493,2.836 5.987,2.669 5.411,7.575 3.076,1.438 7.976,3.918 12.443,2.164-.958-.124-2.709.545-2.164-1.082 1.275-.012 1.593.932 3.246.541 .998-1.346.749-1.29 2.706-2.164-4.304-1.701-11.504-.287-12.444-3.787 4.462.588 7.582,2.517 12.444,2.705 1.435,1.113-.174,2.744 1.623,2.705 2.836.588 4.847-5.538 1.623-5.951-1.015.13.307.891-.541,1.082zm3.787-2.164c.284,2.782 2.691,3.441 4.869,4.329-.043-2.121-.954-3.375-1.623-4.87-1.655-.392-1.591.933-3.246.541zm25.428,5.951c.418-.37 1.409-3.223-.541-2.705 .598,1.513-2.065,2.972-1.082,4.869 2.636-1.502 1.141,3.731 3.787,3.787 .022,1.645.314,3.561-1.623,3.246 .086-1.709.019-3.265-1.082-3.787-.299,2.819-2.702,5.474 0,7.034 1.251-1.995 3.836-2.657 4.869-4.87-.428-1.555-1.492-2.476-2.164-3.787 1.335-2.62 7.667-8.46 1.623-10.28-1.063,2.364-1.52,5.333-3.787,6.493zm-55.726.541c-.023.745.255,1.188.541,1.623 2.741,1.586 6.767,7.053 9.739,4.869-1.533-.631-3.578-.75-4.328-2.164 3.083-.006 5.703,3.298 8.656,1.623-2.771-.655-5.165-1.688-7.033-3.246 1.632.022 4.635,1.456 5.951,0-4.631-.48-8.02-4.88-13.526-2.705zm13.526,16.772c3.69-1.652 3.514-6.56 5.951-9.198 2.5-2.705 5.643-2.548 9.198-4.328-9.022-3.312-14.89,4.607-15.149,13.526zm20.018-12.984c.018-1.641-1.898-1.348-3.246-1.623 .337,2.286 1.201,1.987 3.246,1.623zm77.368.541c-.518-1.008 1.621-1.808 0-2.164-.159.332-1.346,2.083 0,2.164zm-49.775,1.082c-.155-.943 1.728-2.904-.541-2.705 .273,1.699-1.275,2.21.541,2.705zm-47.611-.541c.951-.311 3.179.654 3.246-.541-.694-.744-3.235-.942-3.246.541zm20.559,1.082c1.446-.357 3.38-.227 4.329-1.082-1.636.168-4.209-.601-4.329,1.082zm1.623,3.787c2.717.89 4.192,3.021 4.869,5.952 1.842-.938 3.173.416 5.951,0 .044-4.961-7.372-9.728-10.82-5.952zm110.913,4.869c.185-1.816 3.766-5.34 1.623-5.952-.507,1.679-2.959,4.229-1.623,5.952zm-36.791-1.623c-.518-1.008 1.621-1.808 0-2.164-.159.332-1.346,2.083 0,2.164zm-74.122,1.082c.539-.723 1.462-1.062 1.623-2.164-1.107-.143-2.505,2.099-1.623,2.164zm70.875,5.952c2.002-.539 3.172-4.741 2.164-6.492-.599,2.285-1.722,4.047-2.164,6.492zm-70.334-3.247c-.395,1.476 1.075,1.089 1.082,2.164 1.745-.419 3.197-1.131 4.328-2.164-1.215-1.056-4.069-.471-5.41,0zm-4.869,3.247c1.275-.528 3.432-.175 3.246-2.164-1.47.333-2.534,1.073-3.246,2.164zm70.875,0c-.54,2.651-6.825,5.974-3.787,8.116 .782-1.562.957-3.732 3.246-3.787-1.092,2.903.432,4.333-.541,6.492-1.075-.007-.688-1.476-2.164-1.082-.408,2.573 3.614.713 2.705,3.787-1.042-.22-.428-2.097-2.164-1.623-.963,5.173-4.925,10.219-4.869,14.608 8.791-3.112 9.827-16.862 9.197-27.593-.14.76-1.186.616-1.623,1.082zm-7.033,12.443c.452-.853 2.336-3.016 1.082-3.787-.393.912-2.868,2.485-1.082,3.787zm-3.246,32.462c-3.026-.119-.643.957 1.082.541 1.468.335 4.293-.687 4.869.541-1.725.259-3.298.669-3.787,2.164 3.838.412 6.181-.672 9.738-.541-1.478,1.494.792.508 1.082,1.624-.567.565-4.637.343-3.246,1.082 2.918.032 4.929-.842 7.574-1.082-.162,1.063.73,1.073 1.082,1.623 1.846-.499 4.461-.228 5.41-1.623-3.451-1.238-7.167-2.211-9.738-4.329-1.641-.704-4.813.125-5.41-1.623 5.125-1.548 6.399-6.945 7.574-12.444-5.146.985-4.811,7.453-11.902,6.493-1.391.052-.773,2.112-2.164,2.164 .523-6.33 5.296-8.41 11.361-9.198-.751-2.207-3.273-3.062-5.41-3.246-4.079-.353-8.379,3.183-10.821,2.705 3.038-4.176 5.807-8.621 7.034-14.608-4.397.292-6.128,7.798-9.739,5.411-.284,6.032-6.185,9.319-4.869,15.149 1.478-1.949 1.271-5.582 3.787-6.493 .279,2.555 1.923,4.954.541,7.575 2.056-.108 2.053-2.275 4.328-2.164-1.162,1.543-2.578,2.832-3.246,4.869 2.877.543 4.043,1.417 6.493,0-.063,1.242-3.613,1.74-2.164,2.705 4.215.89 9.884-2.661 11.902-3.787-2.2,3.752-6.158,5.744-11.361,6.492zm-80.614-25.428c.151-.813 2.326-2.278 1.082-2.706 .028.993-2.773,1.833-1.082,2.706zm90.893,6.492c2.536,1.559 6.35,1.608 8.115,3.787 .852,1.051.218,2.947 1.623,3.788-.701,2.221-2.56,3.12-3.787,5.951 3.008.413 2.05-2.816 5.951-4.328-.02-3.056 2.801-4.714 3.247-4.329-.379-1.665-.379-1.04 0-2.705 4.787-1.079 6.951-5.018 10.279-7.574 .444-.342 1.446.053 1.082-1.082-6.078,2.578-17.253.061-21.642,4.328-1.386-.587-2.579,1.644-3.246,0 .301.001.614-.438 0-.541-1.387.994-.325,1.349-1.622,2.705zm-79.531-5.41c-4.094.956-2.714,7.385-5.411,9.738-.172-1.254.087-2.077.541-2.705-2.069-.085-1.758,2.209-2.705,3.246 .81,1.501 2.213-.939 2.705.541-1.635.89-.864,4.185-2.164,5.411-.708-1.841 1.206-3.775 0-4.329-1.584,3.285-2.875,6.863-2.705,11.903h-1.623c.046,3.418-1.448,7.758 0,10.821 3.727-.382 4.503-3.208 5.951-5.951 .564-1.068 1.122-2.931 1.623-3.788 2.082-3.556 6.136-6.306 5.411-9.738-2.058-.795-.106,2.418-2.164,1.623 .623-.64.612-1.913.541-3.246-2.721.932-.187-3.504-3.247-3.788-.084.637.093,1.536-.541,1.623 .56,3.076-.724,4.965-1.082,6.493-.789,3.368-.092,7.576-2.705,9.197 2.798-9.645 3.776-19.451 7.575-27.051zm-14.067,2.705c-2.622-.081-4.46,3.454-3.788,4.869 .149-.491 2.016-1.817 2.165-.541-2.628.979-3.865,3.349-5.952,4.869 2.675-1.112 4.944-2.63 7.575-3.787-.528,2.014-5.214,2.699-4.329,4.328 4.09-3.664 10.99-4.52 13.526-9.738-3.769.386-8.763,2.408-10.82,2.705 1.023.121 1.193-.61 2.164-.541 .121-1.023-.61-1.194-.541-2.164zm33.003,7.033c-.07-.971.537-1.266 1.623-1.082 .322,1.121-.669,3.554.541,3.787 1.065-1.934-.251-2.887 0-5.41-1.856-.55-3.821,1.533-2.164,2.705zm-3.247,6.493c.861-1.39 1.002-5.801-.541-6.493 1.305,2.248-.828,4.668.541,6.493zm-30.297-2.705c1.338,1.865 5.167,1.227 4.328-2.165-1.646.519-3.691.638-4.328,2.165zm19.477,2.164c.232-.85 1.702-.462 1.082-2.164-4.163,3.955-8.646,10.467-9.739,15.69 3.744-2.392 7.036-8.109 10.28-9.198-1.123,2.303-4.104,2.749-4.328,5.951 2.83-1.138 3.886-4.049 5.951-5.951 .668-1.75-1.75-.414-1.082-2.164 1.03-1.014 1.359-.06 2.705,0-.517-1.008 1.621-1.808 0-2.164-.129.587-.891,1.299-1.082.541 .469-1.362 3.439-3.018 2.164-4.329-2.05,1.016-1.93,4.202-4.328,4.87 .878-3.154 1.006-1.731-1.623-1.082zm-22.724,4.328c2.003-.341 3.017-1.672 2.706-4.328 .375.423 3.019,1.204 3.246,0-3.067-2.756-8.006.606-5.952,4.328zm-15.149,3.787c-.942.041-1.683-.121-2.164-.541-.318,1.942.629,2.618 1.082,3.787-.719.543-2.013.512-2.164,1.624 .948,1.036 1.147,2.82 1.623,4.328-2.623.243-1.675,4.246-2.164,6.492-.083.384-1.004-.035-1.082,1.082-.3,4.292.866,9.837 3.787,11.362-.045-1.938-.841-3.126-1.082-4.869 2.88-2.891 6.709-4.833 5.411-11.903 3.676-3.179 2.153-10.583 8.115-12.444-3.575-1.08-6.467-2.459-8.115-5.41-.375-.67.316-2.013-1.082-1.623-.81,3.184-4.21,5.046-2.165,8.115zm8.116-3.787c4.344.737 5.768-1.446 6.492-4.328-2.906.701-4.048,3.166-6.492,4.328zm32.462,9.739c3.222-2.91 5.957-6.307 7.034-11.362-6.273-.14-5.052,7.212-7.034,11.362zm42.2-2.706c.707,1.277.229,3.739 1.082,4.87 4.076-3.756 9.055-7.362 15.69-7.034-1.393-2.935-2.221-6.435-6.492-6.492-.984,4.981-7.825,5.287-10.28,8.656zm124.979-7.033c1.255.472 1.244-2.753.541-1.082 .044.761-1.573.617-.541,1.082zm-196.395,1.623c3.179.349 7.906,2.591 9.198-1.082-.121-.42-.015-1.067-.541-1.082-1.484,2.124-7.43-.216-8.657,2.164zm117.946,7.034c5.199,1.028 11.823,1.484 15.689-1.083-1.3-1.719-3.225,2.183-4.869,0-.841-1.923 1.838-.326 1.623-1.623-5.683-1.842-14.736-6.674-22.183-3.246 2.562-.234 2.157,1.143 1.082,2.164 3.062,1.539 7.033,2.87 10.28,2.705-.85.052-1.875-.072-1.622,1.083zm73.039-4.329c.931.029 1.387-.417 1.623-1.082-.931-.029-1.387.417-1.623,1.082zm3.787,1.082c1.372.573 3.084-1.139 1.623-1.623-.06,1.022-1.788.376-1.623,1.623zm-198.018,1.082c.141,1.584-1.223,1.663-1.082,3.247 .707,1.096 2.864.743 3.246,2.164h-2.705c-.521,1.963 2.431.454 2.164,2.164h-3.246c-1.41,1.784-.194,3.287-1.623,5.41 1.203.42 2.934.312 3.246,1.623-3.854.836-5.186,4.192-8.116,5.952 .286,2.239.738,4.312 2.706,4.869 1.158-2.279 5.331-4.394 7.033-4.328-1.727,1.016-.092,2.035-1.623,3.246 3.329.063 3.39-2.87 3.787-5.41 .811-5.183 4.277-11.251 5.411-15.69 2.2-.505 2.294-3.116 2.705-5.411-4.899-.085-8.822.738-10.821,2.164 1.104-.463 2.981.852 1.623,1.082-1.666.404-1.04-1.484-2.705-1.082zm200.182,2.165c2.127,1.983 1.404,4.047.541,7.033 3.208-1.301 4.788-4.229 5.951-7.575-2.36-.344-2.096-3.314-4.328-3.787 .111,2.276-2.056,2.273-2.164,4.329zm-129.307,0c.703-.719.713-2.013-.541-2.165 .092.81-.193,1.997.541,2.165zm-47.611,1.623c2.42.436 3.005-.963 3.247-2.706-1.741.245-2.791,1.177-3.247,2.706zm131.472,1.082c-.354,1.555 3.456,2.078 5.41,2.164 1.387.061 3.012-1.053 4.328-.541-2.409,3.252 8.039.678 13.525,1.082 2.19.161 5.992,1.875 8.116,1.623 2.181-.258 6.198-2.259 7.574-3.246 1.851-1.328 2.813-3.856 3.787-4.87-14.919,7.196-40.483,2.244-55.727.541 4.207,1.205 7.538,3.285 12.987,3.247zm31.921-2.164c1.709.086 3.265.019 3.787-1.083-.967.658-3.148.1-3.787,1.083zm-157.441,2.164c-.081-.721 2.2-1.633.541-2.164 .08.72-2.2,1.633-.541,2.164zm106.042-.541c4.08,1.791 2.644-1.435 0,0zm-119.568,12.444c-1.622,2.174-3.7,6.749-7.033,5.41 1.105-2.587 3.685-3.041 2.705-5.41 .963-.299 2.247-.278 2.705-1.082-.66-.062-1.281-.162-1.082-1.083 2.829.049.121-2.636 3.246-2.705-3.388-.94-4.825-3.831-5.41-7.574-2.737,5.198-4.966,10.905-5.411,18.395-2.715,1.613-3.795,4.861-6.492,6.492 1.792.974 6.407.837 7.574-.541-.951-.311-3.179.654-3.246-.541 2.606-1.369 4.25-6.561 8.116-4.869-.699,1.104-2.623.984-2.164,3.246 5.198-4.721 9.471-10.366 13.525-16.231-1.543.052-3.663-1.543-4.869.541 .931-.029 1.387.417 1.623,1.082-.98.513-3.166.671-1.623,2.164-1.203.42-2.934.312-3.246,1.624 .66.061 1.281.161 1.082,1.082zm181.787-10.821c.13-.772.891-.913 1.082-1.623-1.114-.475-2.43,1.403-1.082,1.623zm-39.495,3.787c10.101,3.009 31.449,7.885 37.331-1.623 .433-.7 1.714-1.597.541-2.164-7.372,9.088-26.483,4.404-37.872,3.787zm-139.587-1.623c1.233.151 2.034-.13 2.164-1.082-1.007.074-1.808.356-2.164,1.082zm-5.951,17.313c7.123-3.337 10.398-10.521 15.69-15.69-.085-.637.093-1.536-.541-1.623-6.188,4.632-10.599,11.044-15.149,17.313zm179.082-10.28c1.002-1.042.991-.427.541-2.164 .935.136 3.204-1.019 1.623-1.623-2.499,1.469-5.76,2.176-7.033,4.87 2.826-.483 2.998,1.704 1.623,2.705 6.281-.392 9.983-3.362 11.902-8.116-3.17.806-5.689,5.121-8.656,4.328zm-24.347-1.623c-.948.149-2.699-1.523-3.246,0 1.386-.586 2.579,1.644 3.246,0zm-89.27,3.788c1.334-.071 2.607-.082 3.246.541 .388-.576 2.113-2.492.541-3.247-.507,1.658-2.999,1.33-3.787,2.706zm101.173-1.623c-.951.311-3.179-.654-3.247.541 .951-.312 3.179.654 3.247-.541zm-79.532,22.182c-1.085-.899-2.515-1.453-2.705-3.246 1.217-4.252-2.504-5.948-1.623-8.116 2.999,3.762 10.597-.422 10.82,5.952 1.101-2.687 3.711-3.863 3.246-8.116-1.225-2.021-4.137-2.355-5.951-3.787 2.532-.534 4.222-1.91 5.41-3.787-2.184,1.062-6.646-.155-8.656,1.082 .931-.029 1.387.417 1.623,1.082-2.371.154-5.42-.371-5.951,1.623 4.344-.369 8.475,2.335 8.656,4.328-2.928-2.617-8.933-5.8-12.985-2.164 .117-.105.183,2.572-1.623,1.623 1.259,2.123-.662,2.011-.541,4.328 2.009,2.532 2.988,6.027 5.411,8.116 .701.604 2.371.024 2.164,1.623-2.227.572-4.603-1.487-5.411-.541 2.161,1.625 5.932,1.992 8.116,0zm-84.942-10.821c5.846-.109 9.111-5.671 9.198-9.738-2.538,3.775-6.149,6.475-9.198,9.738zm169.344-8.115c-.637.084-1.536-.093-1.623.541 1.468-.335 4.293.687 4.869-.541-1.497.092-1.857-.831-1.082-1.623h-2.164v1.623zm-114.7,1.082c3.321-.641 1.356-2.606 0,0zm45.447,1.623c.932-2.938-2.63-4.191-4.328-2.705 1.481.863 2.669,2.019 4.328,2.705zm-42.742-.541c5.733.939 9.958,3.387 15.69,4.328 .856-1.128 1.764-2.204 2.164-3.787-3.786-2.46-14.059-4.533-17.854-.541zm47.612,8.115c-2.9-3.416-6.882-8.624-11.903-8.115 1.674,1.486 4.22,2.146 3.246,4.869 2.048.658 3.265,2.146 4.869,3.246-2.48.137-2.24-2.448-4.869-2.164-1.718.724.021,2.666-.541,3.787-.243.485-1.334.219-1.623,1.083-.006.017 1.425.772 1.082,1.623-.027.067-3.582-.876-1.082,0 .142.842 1.187.375 1.623,0 1.108,2.679 3.682,3.893 3.787,7.574-2.484-2.024-4.008-5.009-6.492-7.033-1.216,2.034 2.674,2.896 2.705,5.41-2.44-3.15-7.062-4.118-7.574-9.198-2.893-.696-2.346,1.66-4.328.541-2.681,5.836 6.258,4.497 5.951,9.739 .941,1.066 4.642,2.18 3.787,3.246-1.549-.814-3.892-3.658-5.951-2.164 .963.263-.234.577-.541,1.082 2.814-.926 5.594,1.664 7.033,3.788-2.57-.958-3.723-4-7.033-2.706-1.592-1.684-2.975-3.855-5.951-2.705 .716,1.489 2.123,5.45 3.246,3.246 2.729,3.583 4.411,8.213 7.574,11.362-.738-3.956-4.787-7.468-4.869-10.279 4.468,4.008 12.174,4.778 17.854,7.574-1.786-3.27-9.5-3.479-9.739-6.492 2.999,1.51 5.365,3.652 9.739,3.787 .052,1.778 3.176,3.281 4.328,2.164-2.514-2.896-4.829-5.992-6.493-9.739 2.148.203-.108-2.783-.541-.541 .697-3.298-2.753-8.212-4.869-11.903 4.07-.453 6.506,3.582 9.198,2.706-1.179-1.707-4.138-1.634-4.87-3.788 .81-.01 2.213,2.01 2.705.541-1.159-1.203-5.111-2.438-4.328-3.787 1.433,1.273 3.078,2.333 4.87,3.246zm-29.217,4.329c-.138-2.027-.849-3.479-2.164-4.329 .047,2.118-.419,4.748 2.164,4.329zm75.204,63.301c-8.649-6.923-12.97-18.271-19.478-27.593-4.96-7.106-10.938-13.12-16.771-18.396-1.725-1.56-3.698-4.399-6.492-4.328 10.661,9.617 20.923,24.589 29.757,37.331 3.236,4.669 5.896,10.64 9.738,12.985 .918.561 7.312,3.73 7.574,0-.865-1.517-2.434.761-4.328.001zm-36.79-47.611c7.514,6.916 14.104,13.896 20.019,22.183 5.822,8.159 9.272,18.646 18.395,24.346 .137-3.447 4.053-1.35 7.033-2.164 .532-2.714 2.212-4.28 3.246-6.492-6.003-16.269-22.653-24.765-34.626-35.167-4.114-3.575-8.246-8.507-12.443-11.362-2.207-1.5-5.174-1.948-7.574-3.246-2.227-1.204-3.733-3.926-6.493-3.246 2.834,6.7 7.694,10.776 12.443,15.148zm-40.578-11.903c1.33-1.394-.579-2.6-1.623-3.246-.026,1.649.492,2.754 1.623,3.246zm1.623,7.033c-.521-1.463-.875-3.092-1.623-4.328-1.085,1.356.443,3.563 1.623,4.328zm.541-1.623c2.311,1.296 4.002,3.211 5.952,4.87 2.904,6.474 7.621,11.135 12.443,15.689-.226-2.182-2.233-3.65-3.787-5.951-1.641-2.429-2.933-6.343-4.869-8.115-.945-.865-2.463-.671-3.246-1.623-1.268-1.541-2.449-4.866-1.623-5.952-2.303,1.34-2.293-1.734-4.87-1.623v2.705zm20.559,12.985c-1.152-1.553-.673-4.737-3.787-4.328 3.874,11.708 12.73,21.11 19.478,27.593-1.757-3.479-6.742-6.598-7.033-9.738 11.249,9.851 16.962,25.237 28.134,35.167-10.079-18.418-23.417-33.573-36.792-48.694zm42.202,49.234c-4.836-4.148-7.951-10.924-12.444-14.608 2.255,3.501 5.148,10.167 8.116,14.067 2.066,2.717 4.795,4.501 8.115,3.787-.378-2.301-2.455-2.103-3.787-3.246zm1.623-1.623c-10.222-8.38-15.324-22.307-25.97-30.298 .291-2.096-1.379-2.229-1.623-3.787-4.983-3.854-9.547-8.128-13.526-12.985-2.072.852 1.117,2.205 1.082,2.164 2.765,3.219 4.973,6.142 7.575,9.197 10.288,12.083 22.227,23.984 30.839,36.791 2.454.25 3.208,2.202 5.951,2.164-.737-2.049-2.858-2.041-4.328-3.246zm-28.134-47.07c-5.289-1.022-9.857-2.767-14.608-4.328 5.287,8.842 13.645,14.443 20.56,21.642 6.308,6.565 10.547,13.551 16.231,20.559 4.969,6.127 9.741,12.277 18.395,9.739 .013-1.274-.932-1.593-.541-3.246-2.231-1.471-3.341-.7-6.492-1.082-5.762-3.101-8.716-8.457-12.443-13.526-2.692-3.66-5.555-6.923-7.034-10.279 5.916,5.081 9.256,14.772 15.149,20.018 1.312,1.169 4.078,3.484 6.492,2.165-5.567-3.163-10.941-11.377-15.149-17.313-2.044-2.885-6.053-6.318-3.787-7.574-5.685-6.22-10.61-16.079-17.312-19.478 .937.49 1.396,1.893.539,2.703zm-55.727.541c-.006-.793.204-4.427-.541-2.705 .006.793-.204,4.428.541,2.705zm100.091,16.772c1.619,2.075 5.982,12.128 8.657,12.443 1.566.185 3.188-1.726 4.328-1.623-1.219-10.654-10.194-14.153-17.313-18.396-6.542-3.896-12.561-8.922-18.936-12.443 6.125,6.751 17.662,12.835 23.264,20.019zm-159.604-11.362c-7.57-.175-14,.788-17.854,4.328 14.716,6.745 21.308,21.614 30.298,34.086 6.886,3.093 13.801,7.048 18.395,12.443 1.481,1.739 2.906,4.055 3.246,6.492 2.736-.5 3.98-2.591 6.492-.541 4.484-8.271 13.079-13.873 17.854-22.182 1.179-2.052 3.934-6.916 4.328-8.116 2.126-6.467-1.284-8.54-4.869-11.902-1.866-1.75-3.969-4.451-5.952-5.951-4.944-3.742-13.381-5.97-18.936-6.493-6.616-.622-8.946,2.718-12.985,3.246-7.933,1.039-10.352-4.584-16.772-4.869-1.591,1.795 5.079,2.229 3.787,3.787-3.619-.167-4.471-3.102-7.032-4.328zm67.629,25.97c5.459,3.92 9.281,9.475 13.526,14.608 1.476.049 1.089-.901 2.165,0 1.957,1.829 1.498,6.075 3.246,8.115-.438-7.472-3.389-11.79-5.952-16.231-1.509-2.613-2.215-5.845-4.869-7.033-.567,1.872 2.474,2.88.541,4.328-.128-1.366-1.973-2.186-2.705-3.246-.254-.367.25-1.253 0-1.623-.842-1.243-4.953-3.747-2.164-4.328-1.621-2.368-6.316-6.131-9.198-3.787 2.361,2.507 4.348,5.39 5.41,9.197zm53.021-2.705c-1.856-1.75-2.477-4.737-4.869-5.951 1.128,2.128 3.349,6.013 4.869,5.951zm-7.574-2.164c.092-1.354-.831-1.693-1.623-2.164-.092,1.354.831,1.693 1.623,2.164zm1.082,2.164c-2.357,1.035-.444,4.304 0,5.951 4.163,15.439 14.675,23.398 32.462,24.347 1.814-1.221 4.787-3.663 3.246-6.492-2.674-.51-1.823,2.505-4.328,2.164-7.737-2.903-14.516-6.766-18.937-12.984-2.507-1.199-4.411-3.757-6.492-5.952-1.93-2.036-4.977-3.975-4.869-6.492 .606-.055.842.786 1.082,0-.543.002-.645-.438-1.082-.541-.608-.056-.843.785-1.082-.001zm56.808,3.246h1.082c-.049-1.476.901-1.089 0-2.164h-1.082c-.901,1.075.049.688 0,2.164zm-5.952,4.869c1.765,1.275.762-1.283 1.082-1.623 1.222-1.292 5.717-2.325 2.706-4.328-1.145,2.101-3.658,2.834-3.788,5.951zm-92.516,71.958c1.883,1.769 3.908,4.279 5.41,5.41 7.417,5.584 12.42,1.13 13.526-6.492-2.078.792-1.315,6.755-4.869,4.328 5.381-8.765-.477-23.517 2.164-33.003-1.909-2.796-5.175-6.458-3.246-11.362-4.217-3.98.498-11.812-2.164-17.854-3.768-2.545-7.688-4.936-9.198-9.738-3.662-2.11-5.704-5.839-8.657-8.657-4.459,6.181-6.605,14.676-11.903,20.019-.023-.745.255-1.188.541-1.623-2.859.936-5.602,4.847-5.41,7.033 1.306-1.94 2.917-3.575 4.869-4.869-.309,4.199-3.616,5.401-5.41,8.115 2.121-.403 2.939-2.11 4.869-2.705-.056,1.774-4.295,2.161-2.705,3.787 2.017-2.643 5.117-.396 7.575-.541-2.628.799-5.771,1.083-7.575,2.705 5.74-.109 13.205.223 18.395,1.082 3.8.63 9.059,1.272 10.821,3.246-10.125.089-22.292-.658-32.462-1.082 6.735-1.463 17.883.119 23.805-.541-7.373-2.018-20.12-1.89-27.051-1.082 .801,3.864-2.121,9.284-6.493,8.116 .72,1.264.919,3.048 1.623,4.328 .222-.68.698-1.106 1.623-1.082 1.989,5.278-.042,9.782.541,17.312-1.824.512-2.071,3.009-3.246,5.411-2.958-1.915 1.457-7.138 0-9.198-1.604,1.822-.72,6.133-4.328,5.951 .352-2.188 3.023-4.89 1.623-7.033-.221,2.846-2.723,3.409-2.705,6.492-11.128,14.661-22.531,29.048-23.265,54.104 .63.091.588.855.541,1.623 5.369,5.104 13.885,8.908 23.806,8.116 6.972-.558 14.089-2.56 18.395-6.493 9.443,3.905 15.64-3.975 21.101-7.574 2.124-6.183 4.507-12.429 3.246-18.937-3.55-18.319-21.031-31.257-29.757-44.364 .759,5.952 6.302,9.876 6.492,14.607-2.229.427-1.016-2.59-3.246-2.164 2.768,5.831 2.106,12.469 2.164,17.854-1.249-.555.016-3.622-2.164-3.246 1.058,7.897 1.969,16.294 2.164,24.347 .088,3.65.39,8.947-1.082,11.902-1.5-1.205.691-6.102-1.623-6.492-.033,1.828.976,2.309-.541,3.246-.932-8.087-1.392-19.526-1.082-27.052 1.405,4.641-.059,8.807 2.164,12.443-.1-15.371-.569-26.963-3.246-38.413-.819-3.505-2.843-6.863-3.246-10.279-.298-2.528-.486-6.75 1.623-8.657 1.032.231.979,1.546 2.705,1.083 1.305-1.221 3.103-1.947 4.328-3.247 2.631.436 5.667.466 7.034,2.164-1.493.188-3.8-1.553-4.87,0 1.818-.014 2.862.745 3.788,1.624-2.289.81-3.477-2.246-4.87-.541 2.522.724 5.079,1.413 6.493,3.246-1.818.685-2.862-2.119-3.787-.541 2.058,1.353 4.684,2.645 7.033,4.328 2.016,1.444 5.681,3.87 5.41,5.41-2.446-1.171-5.493-4.595-7.574-4.328 2.109,2.299 6.609,4.823 6.492,7.574-1.597-.748-2.19-2.498-3.787-3.246-.382,1.688 3.025,2.328 1.082,3.787-1.041-2.487-3.208-4.515-5.41-4.328-2.183-2.866-3.854-6.246-7.034-8.115-1.878.77-.57,2.988-2.705,1.623 4.414,10.224 14.542,24.272 23.265,32.463zm54.644-69.794c-.929-.035-1.087-3.518-2.164-1.623 .75.215 1.533,3.072 2.164,1.623zm34.085,1.083c1.343.079 2.626.101 2.705-1.083-.812-.862-2.277.016-2.705,1.083zm-.541,5.41c5.256.747 6.341-2.677 6.493-7.034-4.092.417-3.665,5.354-6.493,7.034zm-3.787-1.082c2.444.907 5.906-2.01 3.246-2.705 .595,2.578-3.222.744-3.246,2.705zm-3.787,4.869c-.353,2.156 2.057,1.55 3.787,1.623 .287-2.419 1.619-3.791 3.246-4.869-4.224-.798-2.941,3.911-7.033,3.246zm-163.933,5.41c-.006-.546-.948-.681-1.082,0 2.18,1.527 6.668-.416 1.082,0zm-3.246,1.083c-2.126.647-4.067-1.656-5.411,0 1.174.304 4.431,1.292 5.411,0zm3.246,0c-3.465-.625-1.188,1.652 0,0zm10.28.541c-3.136-1.561-1.424,1.334 0,0zm9.197,2.164c-2.676-.223-6.087-2.552-8.115-1.623 2.113.785 6.283,2.355 8.115,1.623zm76.827,5.951c1.639-.523 2.723-6.77.541-7.574 .244,2.949-.965,4.446-.541,7.574zm-82.237-5.951c-2.173.52-4.311-1.779-5.41-.541 1.386.267 4.289,1.8 5.41.541zm17.854,5.41c-.295,2.851 7.235,1.702 3.787,4.328 2.651-.126 4.096.954 7.034.541-1.127-2.768.272-3.812 1.082-5.951-3.622-1.595-6.021.283-10.28-1.082 1.706,1.476.592,3.663-1.623,2.164zm12.444,7.034c1.093-1.252 1.798-2.892 3.787-3.247-.511,1.653-2.632,1.696-2.705,3.788 2.987-1.702 7.299-2.079 8.116-5.952-2.203-1.859-3.904,1.961-4.87,1.082 .217-1.406 1.615-1.631 1.623-3.246-4.156-2.064-6.131,5.328-5.951,7.575zm.541-4.329v-1.082c-.998-1.797-2.638,1.624 0,1.082zm4.869,4.87c1.849.226 3.083-.164 2.705-2.165-1.318.306-2.783.464-2.705,2.165zm51.398,6.492c-1.713,4.211.27,8.388.541,12.984 .292,4.954-1.527,11.275.541,15.149 .89-5.556.822-12.621 2.164-16.231 .166-1.69-1.563,1.375-1.623-.541 1.333.027 2.595-2.758 1.082-3.787-.222.68-.697,1.105-1.623,1.082 .627-2.489-1.16-6.001.541-9.197-1.854-2.476-3.204-5.453-5.41-7.575-.261,4.228 2.585,5.351 3.787,8.116zm-70.334,2.164c-.346,4.283 2.843.17 3.246,1.082 .442,1.937-1.151,2.686-2.164,1.623v3.246h3.246c.795-2.058-2.418-.106-1.623-2.164 1.549-.106 2.953-.067 2.705,1.623 7.996,1.224 15.879-10.133 5.952-13.525-.176.623-2.36,1.862-2.705.541 .148-1.114 2.015-.51 2.164-1.623-7.553-2.66-6.365,4.562-9.739,7.033 .462.98 1.394,1.492 1.623,2.705-1.529.447-1.402-.762-2.705-.541zm-10.28,2.705c1.386-.058 2.58-.307 3.247-1.082-1.001.133-4.433.549-3.247,1.082zm26.511,4.869c.078-.64.963-1.227 0-1.623-.078.64-.964,1.227 0,1.623zm14.608,20.019c-.074-1.008-.356-1.809-1.082-2.164 .123.958-.546,2.709 1.082,2.164zm-.541,24.347c-1.017-1.726 1.171-3.299-1.082-3.788 .394,1.229-.975,4.221 1.082,3.788zm-.541,4.869c.46-.452 1.482-4.229-.541-3.787 .321,1.12-.669,3.553.541,3.787z" fill-rule="evenodd"/>
 <path d="m159.573,17.41c-.931,2.315-2.769,3.724-3.788,5.951-.271-1.371 1.007-5.832 3.788-5.951z" fill-rule="evenodd"/>
 <path d="m159.032,21.197c.787,1.888-2.261,4.58-2.706,7.034-.534-1.635 1.466-5.376 2.706-7.034z" fill-rule="evenodd"/>
 <path d="m187.166,21.738c.919.267-.367,2.828-2.165,2.164 .052-1.39 2.112-.774 2.165-2.164z" fill-rule="evenodd"/>
 <path d="m203.937,82.333c-4.788,2.787-11.041,4.108-16.771,5.952 .167.734 1.354.449 2.164.541-1.428.917-3.088,1.602-5.411,1.623 .773-1.211 1.737-2.231 2.706-3.246 6.98-.088 11.963-4.94 17.312-4.87z" fill-rule="evenodd"/>
 <path d="m172.56 92.072c5.902-3.476 13.118-5.637 18.937-9.198 2.467 2 4.505-0.694 7.574-1.082-1.819 2.572-6.549 3.67-9.738 3.246-5.575 2.362-10.438 5.434-16.773 7.034z" fill-rule="evenodd"/>
 <path d="m168.77,46.084c4.599-7.664 9.003-15.524 15.148-21.642 1.798.557-2.743,3.718 0,2.164-1.493,3.061-4.956,5.73-7.574,9.198-2.638,3.497-4.574,7.513-7.574,10.28z" fill-rule="evenodd"/>
 <path d="m173.639,44.461c-.819,2.787-3.643,3.571-4.328,6.492-.721-2.178 2.359-5.203 4.328-6.492z" fill-rule="evenodd"/>
 <path d="m160.655,53.659c-.047,4.106-4.799,8.183-5.411,13.526 3.32-4.074 5.41-9.378 8.657-13.526-.026,2.682-2.351,4.663-3.787,7.034-4.062,6.701-7.508,15.372-11.903,22.182 2.278-9.446 7.614-20.519 12.444-29.216z" fill-rule="evenodd"/>
 <path d="m173.64 60.151c-2.667 3.646-5.808 6.816-9.197 9.739 2.963-3.349 5.015-7.61 9.197-9.739z" fill-rule="evenodd"/>
 <path d="m175.8 62.315c-2.023 2.485-4.381 4.636-6.492 7.033-0.03-2.383 3.958-5.411 6.492-7.033z" fill-rule="evenodd"/>
 <path d="m174.18,67.185c.245,2.779-4.912,4.819-6.492,7.575 .211-2.323 4.836-4.897 6.492-7.575z" fill-rule="evenodd"/>
 <path d="m172.016,72.595c1.016-.695-1.231,1.355-1.623,1.623-.544.372.295-.715 1.623-1.623z" fill-rule="evenodd"/>
 <path d="m195.82 75.3c-4.342 2.872-8.924 5.504-14.067 7.574 4.055-2.834 9.763-6.778 14.067-7.574z" fill-rule="evenodd"/>
 <path d="m166.065,75.3c1.278.151-.62,1.445-.541,2.164 1.224-.579 2.379-1.228 3.246-2.164-1.05,2.203-5.41,5.766-8.115,8.115-1.357.608 2.78-1.633 1.623-4.328 1.476.049 1.089-.901 2.164,0-.552-2.354 1.119-2.487 1.623-3.787z" fill-rule="evenodd"/>
 <path d="m196.36 76.923c0.251 2.186-4.338 3.082-7.033 4.328-2.777 1.284-5.586 3.119-8.116 3.787 4.524-3.229 10.42-5.089 15.149-8.115z" fill-rule="evenodd"/>
 <path d="m64.351,78.546c.393,1.672-3.378,3.824-4.329,5.951-1.028-2.306 3.326-3.875 4.329-5.951z" fill-rule="evenodd"/>
 <path d="m68.138,104.516c.931,2.567-3.733,4.192-4.869,6.492-.591-2.227 3.778-4.146 4.869-6.492z" fill-rule="evenodd"/>
 <path d="m149.83 145.64c1.864 1.562 2.805 4.048 4.328 5.951-1.607 0.33-3.318-3.883-4.328-5.951z" fill-rule="evenodd"/>
 <path d="m147.67 157c1.407 0.217 1.632 1.615 3.246 1.624-0.535 1.018-3.295-0.269-3.246-1.624z" fill-rule="evenodd"/>
 <path d="m161.2 171.6c6.168 3.031 12.217 10.866 17.312 16.772-6.119-5.242-11.113-11.609-17.312-16.772z" fill-rule="evenodd"/>
 <path d="m151.46 174.31c2.765 1.203 3.179 4.757 5.41 6.492-1.787-0.027-4.121-4.164-5.41-6.492z" fill-rule="evenodd"/>
 <path d="m81.664 179.18c1.69 1.736 2.128 4.726 2.705 7.575-1.535-1.892-1.938-4.916-2.705-7.575z" fill-rule="evenodd"/>
 <path d="m69.22,201.902c2.183.703 2.106,3.665 4.328,4.328-.831-3.317-3.613-4.683-4.328-8.115 3.544,3.31 5.729,7.978 8.116,12.444-.672-7.086-6.893-13.305-9.739-20.019 6.697,6.828 9.76,17.291 14.067,26.511-.415-7.162-4.48-15.356-7.034-22.183 2.074,1.126 2.387,3.781 3.247,5.951 2.266,5.719 4.885,13.48 6.492,21.101 1.173.091.245-1.919.541-2.705 1.101.521 1.168,2.077 1.082,3.787 1.609-.735.951-3.738 1.082-5.951 1.504,1.512 1.515-1.231 2.164-2.164 .557.671-.07,2.088 2.164,1.082-.004,1.489-.972,2.864-2.164,1.623 .503,3.088.779,3.428 2.706,5.41 .544-2.741-2.521-1.485-1.083-3.787 5.369-.767-1.66,6.438 1.083,7.574-2.038,2.729-3.72,2.457-7.575,3.246-2.847-6.53-8.488-10.268-11.903-16.23 1.694,1.372 3.083,3.049 4.87,4.328-.646-3.683-3.699-4.958-5.411-7.574 2.111-.654 4.116,3.446 5.411,5.41-.187-5.048-5.87-9.277-8.116-14.067z" fill-rule="evenodd"/>
 <path d="m101.141,248.972c1.627.717 2.083,2.605 2.705,4.328-1.371-.973-2.034-2.655-2.705-4.328z" fill-rule="evenodd"/>
 <path d="m43.25,219.756c7.124,1.713 13.173,4.501 18.937,7.574-3.824-.21-8.288-3.791-12.985-5.41-2.117-.729-4.926.249-5.952-2.164z" fill-rule="evenodd"/>
 <path d="m64.351,248.972c-.604.955-7.589,1.487-10.821,2.164 2.605-1.722 7.121-1.535 10.821-2.164z" fill-rule="evenodd"/>
 <path d="m70.302 260.33c-4.458 6.002-9.899 11.021-14.608 16.772-1.584-0.106 1.153-3.101 2.164-4.328 3.261-3.961 8.569-8.961 12.444-12.444z" fill-rule="evenodd"/>
 <path d="m59.481 261.42c-3.1 4.477-10.74 9.097-16.772 12.444 5.003-4.736 11.618-7.86 16.772-12.444z" fill-rule="evenodd"/>
 <path d="m67.056,259.792c.34,2.137-2.496,2.674-3.787,3.787-7.304,6.298-15.7,14.126-23.265,21.101-1.407,1.298-1.837,3.828-4.328,3.787 .336-1.467 2.26-1.347 2.164-3.246-.696-1.513-1.119,1.704-2.705,1.082 1.55-3.503 4.785-5.294 7.574-7.574 5.39-4.408 10.188-9.803 16.231-13.526-.286.436-.564.879-.541,1.623 1.104-.159 1.061-1.464 2.164-1.623-.352-.55-1.244-.56-1.082-1.623 2.539-.347 2.56-3.211 5.411-3.246-.287.436-.564.879-.541,1.623 .813-.81 2.278-.968 2.705-2.165zm-22.724,20.019c.515-1.67 4.074-3.113 3.247-4.328-.93,1.255-4.489,2.697-3.247,4.328zm18.937-17.313c-3.322.64-1.357,2.605 0,0zm-21.642,18.936c.931.029 1.387-.416 1.623-1.082-.85.052-1.876-.072-1.623,1.082zm-2.705,3.246c-.028-.992 2.772-1.832 1.082-2.705 .028.992-2.773,1.832-1.082,2.705z" fill-rule="evenodd"/>
 <path d="m215.298,45.543c-1.169,1.175-3.158,1.53-4.869,2.164 1.488,1.626 2.83-1.468 5.41-.541-.9,1.075.05.688 0,2.164-1.666-.334-5.477,2.507-4.328,0-1.988.176-2.993,1.335-4.869,1.623-.007-1.075-1.476-.688-1.082-2.164 3.537-.79 5.69-2.966 9.738-3.246z" fill-rule="evenodd"/>
 <path d="m234.235,95.318c-.526,1.818-1.99,2.698-3.246,3.787 .13,1.395.931-.743 2.164,0-3.527,3.363-10.178,6.365-15.148,6.493 1.292-1.413 3.581-1.829 5.951-2.164 .068-.971-.662-1.141-.541-2.164 4.84-.75 6.671-4.509 10.82-5.952z" fill-rule="evenodd"/>
 <path d="m94.648,272.778c3.547,1.142 1.928,7.449 3.246,10.82-1.923.841-.327-1.838-1.623-1.623-.837,1.465.043,4.784-.541,7.574-.614-1.713-1.518-8.357.541-9.197-2.153-.912-.332-5.799-1.623-7.574z" fill-rule="evenodd"/>
</svg>
